<svg width="18" height="18" viewBox="0 0 18 18" fill="none" xmlns="http://www.w3.org/2000/svg">
<path d="M17 9.19995C17 13.6182 13.4183 17.2 9 17.2M17 9.19995C17 4.78167 13.4183 1.19995 9 1.19995M17 9.19995H1M9 17.2C4.58172 17.2 1 13.6182 1 9.19995M9 17.2C11.001 15.0093 12.1382 12.1663 12.2 9.19995C12.1382 6.23358 11.001 3.39063 9 1.19995M9 17.2C6.99898 15.0093 5.8618 12.1663 5.8 9.19995C5.8618 6.23358 6.99898 3.39063 9 1.19995M1 9.19995C1 4.78167 4.58172 1.19995 9 1.19995" stroke="#838590" stroke-width="1.2" stroke-linecap="round" stroke-linejoin="round"/>
</svg>
