<svg width="19" height="19" viewBox="0 0 19 19" fill="none" xmlns="http://www.w3.org/2000/svg">
<path d="M11.5748 14.8503C15.6492 14.8503 19 11.5376 19 7.42516C19 3.35084 15.6872 0 11.5748 0C7.46245 0 4.14968 3.31276 4.14968 7.42516C4.18776 11.5376 7.50053 14.8503 11.5748 14.8503ZM11.5748 1.10425C15.078 1.10425 17.9338 3.96008 17.9338 7.46324C17.9338 10.9664 15.078 13.8222 11.5748 13.8222C8.07169 13.8222 5.21586 10.9664 5.21586 7.46324C5.25394 3.96008 8.10977 1.10425 11.5748 1.10425Z" fill="#838590"/>
<path d="M1.67464 18.163L6.85321 13.0225L6.0155 12.1848L0.875007 17.3634L1.67464 18.163Z" fill="#838590"/>
</svg>
