<svg width="81" height="36" viewBox="0 0 81 36" fill="none" xmlns="http://www.w3.org/2000/svg">
<path d="M1.48706 27.8823V7.51138C1.48706 7.51138 2.36832 4.01456 5.7037 4.51566L75.5237 4.46119C75.5237 4.46119 78.491 4.42851 78.9706 8.18678V27.8823C78.9706 27.8823 77.487 31.4662 74.1516 31.2157H6.21684C6.21684 31.2157 2.05597 30.9651 1.48706 27.8823Z" fill="#A3A3A0"/>
<path d="M59.4157 23.2739L56.9839 22.7183C56.8166 23.4917 56.5377 24.0473 56.1584 24.3959C55.8145 24.7299 55.3495 24.9178 54.8644 24.9188C54.1059 24.9188 53.5147 24.5811 53.0908 23.9057C52.8119 23.4373 52.6669 22.6312 52.6669 21.5418C52.6669 20.4525 52.8677 19.6354 53.2916 19.1343C53.7154 18.6332 54.2286 18.3718 54.8421 18.3718C55.3376 18.3579 55.8213 18.5205 56.203 18.8293C56.5823 19.1343 56.8389 19.5919 56.9839 20.2237L59.3153 19.8751C59.1208 18.9593 58.5939 18.143 57.8317 17.5766C57.0508 16.9774 56.0915 16.6833 54.9537 16.6833C53.537 16.6833 52.3657 17.1517 51.4286 18.0777C50.4916 19.0036 50.0231 20.1039 50.0231 21.6072C50.0231 23.1105 50.4805 24.3088 51.3952 25.2238C52.3099 26.1389 53.6151 26.5964 54.9425 26.5964C56.27 26.5964 57.352 26.2042 58.1775 25.4308C58.6981 24.9297 59.1108 24.2107 59.4157 23.2739Z" fill="#2F2F2F"/>
<path fill-rule="evenodd" clip-rule="evenodd" d="M62.7 26.0355C63.4929 24.696 63.9106 23.1762 63.9112 21.629C63.9058 20.0818 63.486 18.563 62.6934 17.2234C61.9009 15.8838 60.7632 14.77 59.3934 13.9926C57.3236 12.8673 54.8837 12.5818 52.6003 13.1979C50.3168 13.814 48.373 15.2822 47.1884 17.2855C46.0038 19.2889 45.6733 21.6669 46.2684 23.9061C46.8634 26.1454 48.3362 28.0663 50.3689 29.2544C51.7404 30.029 53.2966 30.4373 54.881 30.4383C56.4654 30.4393 58.0221 30.0329 59.3946 29.26C60.7672 28.4872 61.9072 27.3751 62.7 26.0355ZM60.0293 16.5961C61.4497 17.9905 62.1599 19.6681 62.1599 21.629C62.1743 22.5637 61.9928 23.4914 61.6263 24.3551C61.2599 25.2187 60.7164 26 60.0293 26.6509C58.6014 28.0452 56.8835 28.7424 54.8756 28.7424C52.9464 28.7338 51.0987 27.9816 49.7345 26.6494C48.3704 25.3173 47.6001 23.5129 47.5913 21.629C47.5913 19.6681 48.3052 17.9905 49.7331 16.5961C50.3996 15.9251 51.1996 15.3943 52.084 15.0365C52.9684 14.6787 53.9184 14.5014 54.8756 14.5155C56.8909 14.5082 58.6088 15.2018 60.0293 16.5961Z" fill="#2F2F2F"/>
<path fill-rule="evenodd" clip-rule="evenodd" d="M25.4817 16.2154H20.3838V27.0435H25.4817C26.1723 27.032 26.8585 26.9331 27.5231 26.7494C28.0997 26.5877 28.6278 26.2925 29.0625 25.8888C29.5524 25.4411 29.9369 24.8947 30.1892 24.2875C30.4569 23.6447 30.5907 22.7515 30.5907 21.5859C30.5946 20.8803 30.5046 20.1772 30.323 19.4943C30.1555 18.8602 29.8554 18.2668 29.4418 17.7513C29.0327 17.2568 28.5088 16.8647 27.9135 16.6075C27.2888 16.3461 26.4857 16.2154 25.4817 16.2154ZM23.8196 24.5816V18.6664H24.6674C25.5598 18.6664 26.1956 18.8734 26.5749 19.2982C26.9542 19.7231 27.155 20.5074 27.155 21.6512C27.155 22.5227 27.0657 23.1545 26.8984 23.5358C26.7607 23.8785 26.5093 24.1662 26.1845 24.3528C25.8833 24.5053 25.3701 24.5816 24.6562 24.5816H23.8196Z" fill="#2F2F2F"/>
<path d="M36.6815 16.2154H32.1748V27.0435H34.9747V18.7862L37.1388 27.0435H39.6822L41.8463 18.7862V27.0435H44.6462V16.2154H40.1396L38.4217 22.8059L36.6815 16.2154Z" fill="#2F2F2F"/>
<path fill-rule="evenodd" clip-rule="evenodd" d="M71.1732 25.257H67.2801L66.7446 27.0435H63.2419L67.4139 16.2154H71.1509L75.3118 27.0435H71.731L71.1732 25.257ZM70.4593 22.9149L69.2322 19.015L68.0275 22.9149H70.4593Z" fill="#2F2F2F"/>
<path fill-rule="evenodd" clip-rule="evenodd" d="M29.8323 8.89594C29.8323 8.31858 29.9996 7.87195 30.3343 7.54514C30.6689 7.21833 31.1263 7.05493 31.7175 7.05493C32.3087 7.05493 32.7884 7.21833 33.1119 7.53425C33.4354 7.85016 33.6027 8.29679 33.6027 8.87415C33.6173 9.22715 33.5446 9.57837 33.3908 9.89814C33.2487 10.16 33.0317 10.3758 32.7661 10.5191C32.4553 10.6724 32.1101 10.7473 31.7621 10.7369C31.4093 10.7479 31.0584 10.6809 30.7358 10.5409C30.4624 10.4107 30.2365 10.2015 30.0888 9.94172C29.9089 9.62186 29.8203 9.26068 29.8323 8.89594ZM30.9589 8.90683C30.9589 9.26632 31.0259 9.51687 31.1597 9.68027C31.2299 9.75595 31.3162 9.81567 31.4126 9.8552C31.509 9.89473 31.613 9.9131 31.7175 9.90904C31.8238 9.91474 31.93 9.89715 32.0285 9.85757C32.1269 9.81799 32.215 9.75741 32.2864 9.68027C32.4203 9.52776 32.4872 9.25542 32.4872 8.85236C32.4872 8.4493 32.4091 8.27501 32.2752 8.1225C32.2056 8.04621 32.1194 7.98609 32.0229 7.94651C31.9264 7.90693 31.822 7.8889 31.7175 7.89373C31.6146 7.88897 31.5119 7.90709 31.4172 7.94672C31.3226 7.98634 31.2383 8.04645 31.1709 8.1225C31.0259 8.2859 30.9589 8.54734 30.9589 8.90683Z" fill="#2F2F2F"/>
<path fill-rule="evenodd" clip-rule="evenodd" d="M25.3368 7.11866V10.6699H26.4635V9.232H26.5639C26.6625 9.23011 26.7595 9.25663 26.8428 9.30826C26.9258 9.39078 26.9937 9.48658 27.0435 9.59149L27.6459 10.6699H28.9176L28.371 9.64596C28.3304 9.56613 28.2777 9.49269 28.2148 9.42808C28.1598 9.35901 28.1001 9.29351 28.0364 9.232C27.9431 9.1741 27.8416 9.13005 27.7352 9.10128C27.8771 9.0795 28.0134 9.03143 28.1368 8.95966C28.2845 8.87544 28.4075 8.75536 28.4937 8.61107C28.5772 8.45681 28.6194 8.28443 28.6164 8.10997C28.6238 7.90517 28.5653 7.70326 28.4491 7.53261C28.3459 7.37444 28.1873 7.2583 28.0029 7.20581C27.7445 7.14002 27.4778 7.11068 27.2109 7.11866H25.3368ZM26.9432 8.5566H26.4635V7.83763H26.9543C27.1013 7.82518 27.2488 7.8555 27.3782 7.92478C27.4172 7.95855 27.4477 8.00076 27.467 8.04804C27.4864 8.09532 27.4942 8.14637 27.4898 8.19712C27.4898 8.2712 27.4664 8.34348 27.4228 8.40409C27.3709 8.45649 27.3053 8.49414 27.2332 8.51303C27.1382 8.53674 27.0411 8.55133 26.9432 8.5566Z" fill="#2F2F2F"/>
<path fill-rule="evenodd" clip-rule="evenodd" d="M22.7265 7.11883H20.8524V10.6701H21.9902V9.352H22.6038C23.05 9.352 23.3846 9.24307 23.6077 9.04698C23.8308 8.8509 23.9424 8.55677 23.9424 8.20818C23.9424 7.85959 23.842 7.58725 23.6412 7.40206C23.4404 7.21687 23.128 7.11883 22.7265 7.11883ZM22.2579 8.63303H21.9902V7.8378H22.3026C22.5145 7.8378 22.6595 7.88138 22.7376 7.95763C22.7751 7.99487 22.8043 8.03922 22.8235 8.08794C22.8427 8.13666 22.8514 8.18871 22.8492 8.24086C22.8509 8.29498 22.8397 8.34875 22.8165 8.39792C22.7933 8.44708 22.7586 8.49028 22.7153 8.52409C22.6261 8.60035 22.4811 8.63303 22.2579 8.63303Z" fill="#2F2F2F"/>
<path d="M38.0313 7.11883H34.6179V8.0012H35.7557V10.6701H36.8824V8.0012H38.0313V7.11883Z" fill="#2F2F2F"/>
<path d="M39.3253 7.11883H42.3372V7.88138H40.4519V8.44784H42.2033V9.16681H40.4519V9.864H42.3929V10.6701H39.3253V7.11883Z" fill="#2F2F2F"/>
<path d="M47.2009 9.50597L46.2081 9.22274C46.1781 9.41074 46.0972 9.58751 45.9738 9.73474C45.9093 9.79607 45.8322 9.84332 45.7476 9.87337C45.6629 9.90342 45.5728 9.91557 45.483 9.90903C45.3858 9.91596 45.2883 9.89976 45.1989 9.86181C45.1096 9.82387 45.0309 9.76531 44.9698 9.69116C44.8471 9.54955 44.7802 9.27721 44.7802 8.88504C44.7647 8.63949 44.8187 8.39451 44.9364 8.17696C44.9991 8.08936 45.082 8.0173 45.1784 7.96651C45.2747 7.91572 45.3819 7.88762 45.4913 7.88445C45.6007 7.88127 45.7094 7.90311 45.8087 7.94823C45.908 7.99334 45.9951 8.06047 46.063 8.14428C46.1107 8.21909 46.1482 8.29966 46.1746 8.38394L47.1674 8.16607C47.0654 7.83277 46.8586 7.53928 46.5762 7.32727C46.3196 7.15297 46.0742 7.05493 45.4941 7.05493C44.9141 7.05493 44.4455 7.21833 44.1332 7.53425C43.8209 7.85016 43.6535 8.29679 43.6535 8.88504C43.6401 9.2665 43.7368 9.64396 43.9324 9.9744C44.083 10.2293 44.3083 10.4342 44.5794 10.5626C44.8857 10.6901 45.2172 10.7496 45.5499 10.7369C45.825 10.7476 46.0992 10.6992 46.3531 10.5953C46.5629 10.5063 46.7469 10.3678 46.8885 10.1923C47.0362 9.98489 47.1422 9.752 47.2009 9.50597Z" fill="#2F2F2F"/>
<path d="M48.2717 7.11883H51.6963V8.0012H50.5473V10.6701H49.4207V8.0012H48.2717V7.11883Z" fill="#2F2F2F"/>
<path d="M56.0022 7.11883H52.9904V10.6701H56.058V9.864H54.117V9.16681H55.8684V8.44784H54.117V7.88138H56.0022V7.11883Z" fill="#2F2F2F"/>
<path fill-rule="evenodd" clip-rule="evenodd" d="M57.4635 7.11887H59.1368C59.4108 7.10842 59.6842 7.15291 59.94 7.24959C60.1364 7.33509 60.3087 7.46593 60.4419 7.63087C60.5755 7.79941 60.674 7.99184 60.732 8.19733C60.7904 8.42165 60.8204 8.65215 60.8212 8.88362C60.8346 9.18339 60.7892 9.4829 60.6873 9.766C60.6074 9.9656 60.4815 10.1445 60.3192 10.2889C60.1751 10.4237 59.9987 10.5211 59.8061 10.5721C59.5884 10.6335 59.3633 10.6665 59.1368 10.6702H57.4635V7.11887ZM58.5902 7.92499V9.86404H58.8691C59.0402 9.87666 59.2119 9.85057 59.371 9.78778C59.4786 9.7307 59.5616 9.63798 59.6053 9.52634C59.6692 9.3256 59.6957 9.11528 59.6834 8.90541C59.6834 8.52413 59.6276 8.27358 59.4937 8.13197C59.3599 7.99035 59.1591 7.92499 58.8691 7.92499H58.5902Z" fill="#2F2F2F"/>
<path fill-rule="evenodd" clip-rule="evenodd" d="M66.7892 7.11937H64.6809V10.6707H66.6219C66.79 10.6662 66.9576 10.6516 67.1239 10.6271C67.2754 10.6146 67.423 10.5739 67.5589 10.5073C67.7067 10.423 67.8296 10.303 67.9159 10.1587C68.0053 10.0102 68.0516 9.8407 68.0497 9.66845C68.0576 9.4636 67.9904 9.26273 67.8601 9.10199C67.7121 8.93183 67.5061 8.81964 67.28 8.78608C67.4316 8.73878 67.5694 8.65658 67.6816 8.54642C67.8162 8.39594 67.8879 8.20149 67.8824 8.00174C67.8829 7.88234 67.8573 7.7642 67.8073 7.65524C67.7572 7.54628 67.684 7.44901 67.5924 7.36992C67.3658 7.19193 67.0795 7.10263 66.7892 7.11937ZM66.3095 8.51374H65.8187V7.83834H66.3095C66.4386 7.82875 66.5674 7.85925 66.6777 7.92549C66.7114 7.9558 66.7378 7.99298 66.7552 8.0344C66.7725 8.07581 66.7803 8.12045 66.778 8.16515C66.7814 8.2132 66.7741 8.26138 66.7568 8.30648C66.7395 8.35157 66.7125 8.39252 66.6777 8.42659C66.5669 8.49149 66.4385 8.52188 66.3095 8.51374ZM66.3876 9.90811H65.8187V9.18914H66.3876C66.5326 9.17465 66.6784 9.20926 66.8004 9.28718C66.8384 9.31758 66.8691 9.35579 66.8903 9.39909C66.9115 9.4424 66.9227 9.48973 66.9231 9.53773C66.9253 9.58926 66.9153 9.6406 66.8941 9.68781C66.8728 9.73502 66.8407 9.77684 66.8004 9.81007C66.6784 9.88799 66.5326 9.9226 66.3876 9.90811Z" fill="#2F2F2F"/>
<path d="M69.0537 7.11883H70.3031L71.0394 8.31712L71.7756 7.11883H73.0138L71.5971 9.1886V10.6701H70.4705V9.1886L69.0537 7.11883Z" fill="#2F2F2F"/>
<path d="M74.8767 8.10052H73.7947V9.09183H74.8767V8.10052Z" fill="#2F2F2F"/>
<path d="M74.8767 9.69097H73.7947V10.6714H74.8767V9.69097Z" fill="#2F2F2F"/>
<path d="M7.09806 12.4902H5.58096C5.58096 12.4902 5.46941 8.61209 9.42949 7.13057C9.42949 7.13057 12.6533 6.09568 14.6836 8.53583C15.7011 9.65468 16.3909 11.0207 16.6803 12.4902H14.8397C14.8397 12.4902 14.3154 8.96068 11.5936 8.81906C11.5936 8.81906 8.29166 8.0892 7.09806 12.4902Z" fill="#2F2F2F"/>
<path fill-rule="evenodd" clip-rule="evenodd" d="M16.9034 13.5136H4.96745C4.96745 13.5136 3.51728 13.3937 3.62883 14.9515V27.1413C3.62883 27.1413 3.82962 28.3614 5.4025 28.1436L16.9034 28.1653C16.9034 28.1653 17.9074 28.0891 18.0747 27.1087C18.2421 26.1283 18.0747 14.7881 18.0747 14.7881C18.0747 14.7881 18.2198 13.5136 16.9034 13.5136ZM8.83831 24.6583H12.9434L11.3594 21.6844V20.4207C12.2406 20.388 12.553 19.1244 12.553 19.1244C12.7091 17.3378 11.0916 17.0546 11.0916 17.0546C9.40722 16.7823 8.98332 18.2747 8.98332 18.2747C8.61521 19.778 9.87574 20.3989 9.87574 20.3989L9.9092 21.6952L8.83831 24.6583Z" fill="#2F2F2F"/>
</svg>
