<svg width="36" height="36" viewBox="0 0 36 36" fill="none" xmlns="http://www.w3.org/2000/svg">
<path fill-rule="evenodd" clip-rule="evenodd" d="M18.1459 32.7153C9.93335 32.7153 3.2753 26.0573 3.2753 17.8447C3.2753 9.63218 9.93335 2.97412 18.1459 2.97412C26.3584 2.97412 33.0165 9.63218 33.0165 17.8447C33.0165 26.0573 26.3584 32.7153 18.1459 32.7153ZM11.3302 13.3013L8.64556 14.3669V15.742L10.5768 14.937V21.9758H11.9498V13.3013H11.3302ZM18.4225 17.4353C18.7754 17.2826 19.05 17.0466 19.2453 16.7275C19.4429 16.4027 19.5449 16.0289 19.5397 15.6488C19.5397 14.9549 19.2691 14.3898 18.7278 13.9535C18.1875 13.5184 17.5134 13.3013 16.7054 13.3013C15.8905 13.3013 15.2124 13.5193 14.6721 13.9535C14.4131 14.1524 14.2046 14.4095 14.0637 14.7041C13.9228 14.9987 13.8534 15.3224 13.8612 15.6488C13.8612 16.0483 13.9583 16.4082 14.1546 16.7275C14.3509 17.0466 14.6245 17.2826 14.9774 17.4343C14.5598 17.5774 14.2018 17.8558 13.9603 18.2254C13.7224 18.5922 13.6025 19.0195 13.6025 19.5072C13.6025 20.2577 13.8939 20.8575 14.4778 21.3046C15.0627 21.7517 15.8042 21.9758 16.7064 21.9758C17.5986 21.9758 18.3382 21.7517 18.9221 21.3046C19.507 20.8575 19.7985 20.2577 19.7985 19.5072C19.7985 19.0205 19.6795 18.5932 19.4396 18.2254C19.1981 17.8558 18.8402 17.5774 18.4225 17.4343V17.4353ZM16.7054 14.5405C17.1555 14.5405 17.5084 14.6565 17.7632 14.8895C18.018 15.1224 18.1459 15.4426 18.1459 15.8491C18.1459 16.6283 17.666 17.0189 16.7054 17.0189C15.7379 17.0189 15.254 16.6283 15.254 15.8491C15.254 15.4426 15.3819 15.1224 15.6368 14.8895C15.8915 14.6565 16.2484 14.5405 16.7054 14.5405ZM16.7054 20.7366C16.1305 20.7366 15.6744 20.6275 15.3413 20.4103C15.1839 20.3153 15.0548 20.18 14.9669 20.0186C14.8792 19.8571 14.8359 19.6751 14.8416 19.4913C14.8416 18.6685 15.4632 18.2581 16.7054 18.2581C17.9417 18.2581 18.5593 18.6685 18.5593 19.4913C18.5593 19.8879 18.3927 20.1932 18.0586 20.4103C17.7255 20.6285 17.2745 20.7366 16.7064 20.7366H16.7054ZM24.8347 15.3662H23.4368V17.7902H21.0378V19.1384H23.4368V21.5624H24.8347V19.1384H27.2338V17.7902H24.8347V15.3662Z" fill="#A3A3A0"/>
</svg>
