<svg width="64" height="29" viewBox="0 0 64 29" fill="none" xmlns="http://www.w3.org/2000/svg">
<g clip-path="url(#clip0_29_1197)">
<path d="M-0.00942993 23.3214V5.81251C-0.00942993 2.94363 2.47334 0.718075 5.38388 0.718075H58.7436C59.4262 0.708178 60.1038 0.833027 60.7366 1.08527C61.3695 1.33751 61.9447 1.71204 62.4284 2.1868C62.9121 2.66155 63.2945 3.22693 63.5531 3.84961C63.8117 4.4723 63.9412 5.13971 63.9341 5.81251V23.3214" fill="#A3A3A0"/>
<path d="M-0.0094223 23.3198V23.6328C0.0131411 25.0378 0.587928 26.3794 1.59391 27.375C2.59989 28.3706 3.95858 28.9427 5.38388 28.9706H58.7437C61.6542 28.9706 63.9341 26.5017 63.9341 23.6328V23.3198" fill="#757573"/>
<path d="M17.0275 7.7928L15.925 8.82298C15.1734 8.08687 14.2877 7.49701 13.3144 7.08427C12.4433 6.7028 11.5025 6.50018 10.5494 6.48876C9.43255 6.4897 8.33417 6.76934 7.35659 7.30161C6.38412 7.80798 5.57229 8.56908 5.01053 9.50108C4.46664 10.386 4.17844 11.4005 4.17706 12.4352C4.18462 13.5001 4.48979 14.5423 5.05903 15.4475C5.62831 16.3852 6.4453 17.153 7.42274 17.6687C8.44349 18.218 9.58927 18.5022 10.7522 18.4946C12.099 18.5339 13.4163 18.1011 14.4698 17.2731C15.4656 16.4884 16.1112 15.3514 16.269 14.1043H11.7312V12.7481H17.8698C17.8698 14.9186 17.2157 16.6414 15.9074 17.9165C14.5991 19.1915 12.8675 19.8334 10.7125 19.8421C8.06659 19.8421 5.9807 18.9582 4.45488 17.1906C3.29268 15.8803 2.66287 14.1928 2.68651 12.4526C2.68046 11.1473 3.03244 9.86468 3.7052 8.74039C4.36727 7.6104 5.33131 6.68121 6.49225 6.05408C7.71949 5.38879 9.10034 5.04739 10.5008 5.06301C11.6689 5.05519 12.8272 5.27377 13.9097 5.70634C15.0717 6.20437 16.1291 6.912 17.0275 7.7928Z" fill="#14161B"/>
<path d="M20.5712 5.43948H23.4068C24.5092 5.39929 25.6129 5.46919 26.701 5.64812C27.4831 5.82679 28.1837 6.25456 28.6943 6.86522C29.2252 7.51974 29.5006 8.34019 29.4704 9.17771C29.5038 10.0121 29.2366 10.8312 28.7163 11.4902C28.181 12.1166 27.4482 12.5482 26.6348 12.716C25.4386 12.9102 24.2259 12.9873 23.0143 12.9464H21.9956V19.4666H20.5712V5.43948ZM21.9956 6.80437V11.5858L24.4078 11.6163C25.1307 11.6509 25.8542 11.5627 26.5466 11.3555C26.9878 11.1861 27.362 10.8813 27.6138 10.4861C27.8708 10.0986 28.0058 9.64495 28.0019 9.18206C28.0077 8.71892 27.8725 8.26469 27.6138 7.87802C27.3713 7.49987 27.013 7.20758 26.5907 7.04344C25.9173 6.84732 25.2148 6.76646 24.5137 6.80437H21.9956Z" fill="#14161B"/>
<path d="M31.5122 5.44019H32.9762L35.8868 15.5595L39.9703 5.44019H40.2658L44.3009 15.5595L47.2599 5.44019H48.7108L44.6184 19.4803H44.3538L40.1203 8.85676L35.8162 19.4803H35.5516L31.5122 5.44019Z" fill="#14161B"/>
<path d="M54.7979 5.44019L61.4392 19.4803H59.9002L57.66 14.8597H51.5258L49.3209 19.4803H47.7333L54.4628 5.44019H54.7979ZM54.6171 8.42208L52.1785 13.5035H57.0294L54.6171 8.42208Z" fill="#14161B"/>
<path d="M15.2796 24.5598H15.8308L16.9289 27.3678H16.3644L16.1395 26.7984H14.9841L14.7504 27.3765H14.1815L15.2796 24.5598ZM15.5574 25.3031L15.1738 26.2681H15.9367L15.5574 25.3031Z" fill="white"/>
<path d="M17.3415 24.5591H17.9192C18.1476 24.5475 18.3762 24.577 18.5939 24.646C18.7297 24.7005 18.8441 24.7965 18.9203 24.9199C18.998 25.0519 19.0391 25.2019 19.0393 25.3545C19.0469 25.5309 18.9924 25.7045 18.885 25.8457C18.7721 25.981 18.6171 26.0757 18.444 26.1152C18.2553 26.152 18.0629 26.1665 17.8707 26.1587V27.3497H17.3415V24.5591ZM17.8839 25.6588H18.0692C18.1643 25.6629 18.2594 25.6526 18.3514 25.6284C18.4019 25.6103 18.4451 25.5768 18.4749 25.5328C18.5059 25.4849 18.5213 25.4287 18.519 25.3719C18.5223 25.3243 18.5122 25.2767 18.4896 25.2344C18.467 25.1922 18.4329 25.157 18.3911 25.1329C18.2827 25.087 18.1647 25.0676 18.0471 25.0764H17.8928L17.8839 25.6588Z" fill="white"/>
<path d="M19.5663 24.5591H20.144C20.3724 24.5475 20.601 24.577 20.8187 24.646C20.9545 24.7005 21.0689 24.7965 21.1451 24.9199C21.2228 25.0519 21.2638 25.2019 21.2641 25.3545C21.2717 25.5309 21.2172 25.7045 21.1098 25.8457C20.9969 25.981 20.8419 26.0757 20.6688 26.1152C20.4801 26.152 20.2877 26.1665 20.0955 26.1587V27.3497H19.5663V24.5591ZM20.1087 25.6588H20.2763C20.3714 25.6629 20.4666 25.6526 20.5585 25.6284C20.609 25.6103 20.6523 25.5768 20.682 25.5328C20.713 25.4849 20.7284 25.4287 20.7261 25.3719C20.7295 25.3243 20.7193 25.2767 20.6967 25.2344C20.6741 25.1922 20.64 25.157 20.5982 25.1329C20.498 25.0844 20.3879 25.0591 20.2763 25.059H20.122L20.1087 25.6588Z" fill="white"/>
<path d="M21.8288 24.5596H22.4021C22.6302 24.547 22.8588 24.575 23.0768 24.6422C23.2106 24.6979 23.3233 24.7937 23.3988 24.916C23.4819 25.054 23.5246 25.212 23.5222 25.3724C23.528 25.5378 23.4801 25.7008 23.3855 25.8375C23.2834 25.971 23.1416 26.0697 22.9798 26.1201L23.6545 27.3676H23.0636L22.4242 26.1766H22.3757V27.3676H21.8288V24.5596ZM22.3713 25.6593H22.5432C22.6661 25.6706 22.7898 25.6481 22.9004 25.5941C22.9341 25.5681 22.9607 25.5342 22.9776 25.4955C22.9946 25.4567 23.0014 25.4144 22.9975 25.3724C22.9988 25.3151 22.9818 25.2589 22.949 25.2116C22.9172 25.1676 22.8726 25.1343 22.8211 25.116C22.7247 25.0911 22.6251 25.0808 22.5256 25.0855H22.3757L22.3713 25.6593Z" fill="white"/>
<path d="M25.442 24.4871C25.6364 24.4852 25.8292 24.5229 26.0083 24.5976C26.1873 24.6724 26.3488 24.7828 26.4827 24.9218C26.6249 25.0584 26.7374 25.2221 26.8132 25.403C26.8891 25.5838 26.9266 25.778 26.9237 25.9737C26.9265 26.1681 26.8888 26.361 26.8129 26.5404C26.7371 26.7198 26.6247 26.882 26.4827 27.017C26.2032 27.2925 25.8241 27.4473 25.4288 27.4473C25.0334 27.4473 24.6543 27.2925 24.3748 27.017C24.1686 26.8096 24.0289 26.5469 23.9732 26.2618C23.9175 25.9767 23.9483 25.6817 24.0616 25.4136C24.175 25.1456 24.366 24.9165 24.6107 24.7548C24.8554 24.5931 25.143 24.5061 25.4376 24.5045L25.442 24.4871ZM25.442 25.0087C25.318 25.005 25.1946 25.027 25.0799 25.0735C24.9651 25.1199 24.8616 25.1897 24.7761 25.2782C24.6863 25.3696 24.6162 25.4779 24.5699 25.5967C24.5237 25.7155 24.5023 25.8423 24.5071 25.9694C24.501 26.1102 24.5286 26.2504 24.5876 26.3787C24.6466 26.5071 24.7353 26.62 24.8466 26.7083C25.016 26.8477 25.2302 26.9232 25.4508 26.9213C25.5736 26.9233 25.6955 26.9 25.8087 26.8528C25.9218 26.8057 26.0237 26.7357 26.1079 26.6475C26.2827 26.4638 26.3801 26.2213 26.3801 25.9694C26.3801 25.7175 26.2827 25.475 26.1079 25.2913C26.0226 25.2006 25.9188 25.1289 25.8032 25.0809C25.6876 25.0329 25.5629 25.0098 25.4376 25.0131L25.442 25.0087Z" fill="white"/>
<path d="M27.2107 24.5598H27.7708L28.4896 26.555L29.2172 24.5598H29.7729L28.741 27.3678H28.2118L27.2107 24.5598Z" fill="white"/>
<path d="M30.2081 24.5598H31.7648V25.0858H30.7461V25.5944H31.7648V26.1029H30.7461V26.8419H31.7648V27.3678H30.2081V24.5598Z" fill="white"/>
<path d="M32.2702 24.5599H32.9141C33.2289 24.5425 33.5438 24.5945 33.8357 24.7121C34.0483 24.8245 34.2218 24.9971 34.334 25.2076C34.4459 25.4215 34.5115 25.656 34.5267 25.8961C34.5419 26.1363 34.5063 26.377 34.4222 26.6029C34.3537 26.7677 34.2499 26.916 34.118 27.0376C33.9996 27.151 33.8562 27.2358 33.699 27.2854C33.4431 27.3424 33.1806 27.3658 32.9185 27.3549H32.2702V24.5599ZM32.8082 25.0598V26.8333H33.064C33.2473 26.8447 33.4309 26.8165 33.602 26.7507C33.7208 26.687 33.8164 26.5882 33.8754 26.4682C33.9509 26.3154 33.9872 26.1468 33.9812 25.977C33.9891 25.85 33.9705 25.7227 33.9265 25.6031C33.8825 25.4835 33.8141 25.374 33.7255 25.2815C33.52 25.1166 33.2574 25.0371 32.9934 25.0598H32.8082Z" fill="white"/>
<path d="M36.1505 24.5591H36.7282C36.9566 24.5475 37.1852 24.577 37.4029 24.646C37.5387 24.7005 37.6531 24.7965 37.7292 24.9199C37.807 25.0519 37.848 25.2019 37.8483 25.3545C37.8559 25.5309 37.8014 25.7045 37.694 25.8457C37.5811 25.981 37.4261 26.0757 37.253 26.1152C37.0643 26.152 36.8719 26.1665 36.6797 26.1587V27.3497H36.1505V24.5591ZM36.6929 25.6588H36.8649C36.96 25.6629 37.0552 25.6526 37.1471 25.6284C37.1976 25.6103 37.2409 25.5768 37.2706 25.5328C37.3016 25.4849 37.317 25.4287 37.3147 25.3719C37.3181 25.3243 37.3079 25.2767 37.2853 25.2344C37.2627 25.1922 37.2286 25.157 37.1868 25.1329C37.0785 25.087 36.9605 25.0676 36.8429 25.0764H36.6885L36.6929 25.6588Z" fill="white"/>
<path d="M39.7288 24.4871C39.9232 24.4852 40.116 24.5229 40.2951 24.5976C40.4741 24.6724 40.6356 24.7828 40.7695 24.9218C40.9117 25.0584 41.0242 25.2221 41.1 25.403C41.1759 25.5838 41.2135 25.778 41.2105 25.9737C41.2133 26.1681 41.1756 26.361 41.0997 26.5404C41.0239 26.7198 40.9115 26.882 40.7695 27.017C40.49 27.2925 40.1109 27.4473 39.7156 27.4473C39.3202 27.4473 38.9411 27.2925 38.6616 27.017C38.4554 26.8096 38.3157 26.5469 38.26 26.2618C38.2043 25.9767 38.2351 25.6817 38.3484 25.4136C38.4618 25.1456 38.6528 24.9165 38.8975 24.7548C39.1422 24.5931 39.4298 24.5061 39.7244 24.5045L39.7288 24.4871ZM39.7288 25.0087C39.6048 25.005 39.4814 25.027 39.3667 25.0735C39.2519 25.1199 39.1484 25.1897 39.0629 25.2782C38.9733 25.3705 38.9037 25.4797 38.8582 25.5992C38.8127 25.7188 38.7924 25.8462 38.7983 25.9737C38.7922 26.1145 38.8198 26.2547 38.8788 26.3831C38.9378 26.5114 39.0265 26.6243 39.1379 26.7127C39.3073 26.852 39.5214 26.9275 39.742 26.9257C39.8648 26.9277 39.9867 26.9043 40.0999 26.8572C40.213 26.81 40.315 26.7401 40.3991 26.6518C40.574 26.4681 40.6713 26.2256 40.6713 25.9737C40.6713 25.7218 40.574 25.4794 40.3991 25.2956C40.3138 25.2036 40.2093 25.1307 40.0929 25.082C39.9765 25.0332 39.8508 25.0097 39.7244 25.0131L39.7288 25.0087Z" fill="white"/>
<path d="M41.7502 24.5596H42.3235C42.5516 24.547 42.7801 24.575 42.9982 24.6422C43.132 24.6979 43.2446 24.7937 43.3201 24.916C43.4032 25.054 43.446 25.212 43.4436 25.3724C43.4494 25.5378 43.4015 25.7008 43.3069 25.8375C43.2048 25.971 43.0629 26.0697 42.9012 26.1201L43.5759 27.3676H42.985L42.3235 26.1766H42.275V27.3676H41.7502V24.5596ZM42.2926 25.6593H42.4646C42.5875 25.6706 42.7112 25.6481 42.8218 25.5941C42.8555 25.5681 42.882 25.5342 42.899 25.4955C42.9159 25.4567 42.9228 25.4144 42.9188 25.3724C42.9201 25.3151 42.9032 25.2589 42.8703 25.2116C42.8386 25.1676 42.7939 25.1343 42.7424 25.116C42.6461 25.0911 42.5465 25.0808 42.447 25.0855H42.297L42.2926 25.6593Z" fill="white"/>
<path d="M43.7368 24.5598H45.3112V25.0858H44.7952V27.3678H44.244V25.0858H43.7368V24.5598Z" fill="white"/>
<path d="M46.5543 24.5598H47.1055L48.2036 27.3678H47.6171L47.4142 26.7984H46.25L46.0163 27.3765H45.4562L46.5543 24.5598ZM46.8321 25.3031L46.4485 26.2681H47.2114L46.8321 25.3031Z" fill="white"/>
<path d="M48.6191 24.5598H49.1616V26.8593H49.9509V27.3678H48.628L48.6191 24.5598Z" fill="white"/>
</g>
<defs>
<clipPath id="clip0_29_1197">
<rect width="63.9435" height="28.2541" fill="white" transform="translate(-0.00942993 0.717529)"/>
</clipPath>
</defs>
</svg>
