<svg width="222" height="36" viewBox="0 0 222 36" fill="none" xmlns="http://www.w3.org/2000/svg">
<path d="M7.87714 18.0234H8.2375C9.1384 18.0234 10.1834 18.0234 11.0843 18.0234C11.6609 18.0234 12.1294 17.9152 12.5618 17.5546C13.6069 16.7614 13.6069 15.283 12.5618 14.598C12.2015 14.3816 11.8771 14.1292 11.5168 14.1292C10.2555 14.021 9.10236 14.1292 7.87714 14.021V18.0234ZM7.87714 24.9823H8.2375C9.28254 24.9823 10.1834 24.9823 11.1925 24.9823C11.4087 24.9823 11.6609 24.9823 11.8771 24.9823C13.2465 24.766 14.1474 23.504 13.715 22.1338C13.4988 21.2324 12.6699 20.7637 11.8771 20.5473C11.3006 20.4392 10.6159 20.4392 10.0393 20.4392C9.35462 20.4392 8.66993 20.4392 7.87714 20.4392V24.9823ZM3.30055 11.3889C4.56181 11.3889 5.93119 11.3889 7.19245 11.3889C8.92218 11.3889 10.6159 11.3889 12.3456 11.4971C13.715 11.4971 14.8681 11.9658 15.6609 13.0836C16.5618 14.3456 16.8141 15.7157 16.3456 17.194C16.1294 17.8791 15.6609 18.3479 15.0844 18.6724C14.8681 18.7806 14.724 18.8887 14.5078 19.0329C14.9762 19.2493 15.4087 19.5017 15.769 19.8262C16.6699 20.6194 17.1384 21.7733 17.1384 23.0352C17.1384 24.4054 16.6699 25.5592 15.5528 26.4606C14.76 27.1457 13.8231 27.5063 12.8141 27.6145C12.4537 27.6145 12.1294 27.7226 11.769 27.7226C9.03029 27.7226 6.29155 27.7226 3.5528 27.7226C3.4447 27.7226 3.33659 27.7226 3.19244 27.7226V25.0905H4.45371V14.1292H3.19244L3.30055 11.3889ZM211.049 22.7107C211.049 22.3502 211.049 22.0257 211.049 21.6651C210.94 20.8718 210.472 20.2949 209.787 19.9344C208.526 19.1411 207.049 19.5738 206.472 20.98C206.112 22.0257 206.112 22.9271 206.364 23.9367C206.58 24.7299 206.94 25.3068 207.733 25.6674C209.211 26.2443 211.049 24.9823 211.049 23.3958V22.7107ZM208.094 30.3548C207.625 30.2466 207.049 30.1384 206.724 29.886C205.823 29.4173 205.247 28.7322 204.886 27.7226C205.355 27.7226 205.787 27.7226 206.256 27.7226C206.364 27.7226 206.364 27.8308 206.472 27.8308C207.265 29.201 208.886 29.5615 210.256 28.7322C210.832 28.3717 211.049 27.939 211.157 27.2539C211.157 26.5688 211.157 25.8837 211.157 25.1987C211.049 25.3068 210.94 25.5592 210.796 25.6674C209.427 27.2539 206.904 26.9294 205.751 25.3068C204.958 24.2612 204.85 23.1434 204.958 21.8814C204.958 21.0882 205.319 20.4031 205.643 19.718C206.796 17.9873 209.535 17.6628 210.796 19.5017C210.904 19.6099 211.013 19.718 211.157 19.9704V18.4921H213.679V19.5377H212.418V19.8983C212.418 22.3141 212.418 24.6939 212.418 27.1097C212.418 28.8404 211.373 29.85 209.787 30.2106C209.571 30.2106 209.427 30.3187 209.211 30.3187H208.058V30.3548H208.094ZM218.724 6.34094C218.724 4.50205 217.247 3.02372 215.409 3.02372C213.571 3.02372 212.094 4.50205 211.986 6.34094C211.986 8.17984 213.463 9.65817 215.301 9.76634C217.247 9.65817 218.724 8.17984 218.724 6.34094ZM219.409 6.80968C219.301 7.49476 219.049 8.07167 218.616 8.64858C217.571 10.0187 215.877 10.5956 214.256 10.1269C212.67 9.65817 211.517 8.28801 211.409 6.70151C211.193 4.5381 212.67 2.59104 214.724 2.23047C214.724 2.23047 214.832 2.23047 214.94 2.23047H215.841H215.95C217.103 2.44681 217.895 2.91555 218.58 3.81697C219.049 4.39388 219.157 4.97079 219.373 5.65587V6.80968H219.409ZM139.769 19.1411C139.553 20.2949 139.193 21.4127 138.976 22.5665C138.616 24.153 138.184 25.7756 137.823 27.3621C137.823 27.4702 137.823 27.5784 137.607 27.5784C136.562 27.5784 135.553 27.5784 134.508 27.5784C134.4 27.2178 134.292 26.8933 134.292 26.5328C133.499 23.6843 132.706 20.7997 132.021 17.9512C132.021 17.7349 131.913 17.5907 131.661 17.5907C131.445 17.5907 131.193 17.5907 130.868 17.5907V15.1749H135.769V17.5907H134.508C135.085 20.0065 135.661 22.3862 136.238 24.802C136.346 24.5857 136.346 24.2251 136.454 24.0088C137.03 21.1603 137.607 18.2758 138.292 15.5354C138.292 15.4273 138.4 15.3191 138.508 15.3191C139.409 15.3191 140.346 15.3191 141.247 15.3191C141.463 15.3191 141.463 15.4273 141.463 15.5354C142.148 18.4921 142.724 21.4848 143.409 24.4415C143.409 24.5496 143.409 24.5496 143.517 24.6578L145.103 17.5546H143.841V15.1388H148.742V17.5546C148.526 17.5546 148.166 17.5546 147.949 17.5546C147.841 17.5546 147.733 17.5546 147.733 17.771C146.94 20.8718 146.003 24.0448 145.211 27.1457C145.103 27.3621 145.103 27.5063 144.85 27.5063C143.949 27.5063 143.012 27.5063 142.112 27.5063C141.895 27.5063 141.895 27.5063 141.751 27.29C141.067 24.6578 140.49 22.0257 139.805 19.2853C139.877 19.2493 139.877 19.2493 139.769 19.1411ZM123.301 14.5619C122.508 16.9777 121.823 19.2493 121.139 21.6651H125.355C124.67 19.2493 123.985 16.8695 123.301 14.5619ZM130.94 24.9823V27.6145H127.301C127.085 26.8212 126.832 26.028 126.616 25.1987C126.508 24.8381 126.4 24.5136 126.256 24.153C126.256 24.0448 126.148 24.0448 126.039 24.0448C124.202 24.0448 122.4 24.0448 120.67 24.0448C120.454 24.0448 120.454 24.153 120.454 24.2612C120.094 25.3068 119.877 26.3164 119.553 27.3621C119.553 27.4702 119.553 27.4702 119.445 27.5784H115.661V24.9463C116.021 24.9463 116.346 24.9463 116.706 24.9463C116.922 24.9463 116.922 24.9463 117.066 24.7299C118.436 20.2589 119.913 15.9321 121.283 11.461C121.283 11.2447 121.391 11.2447 121.643 11.2447C122.796 11.2447 123.913 11.2447 125.175 11.2447C125.391 11.2447 125.391 11.3528 125.535 11.461C127.012 15.8239 128.382 20.2589 129.895 24.6218C130.003 24.8381 130.003 24.8381 130.256 24.8381C130.256 24.9823 130.616 24.9823 130.94 24.9823ZM175.769 19.8262L181.031 19.9344C181.031 18.5642 179.986 17.5186 178.616 17.5186C177.247 17.4464 175.877 18.5642 175.769 19.8262ZM184.562 22.1338H175.769C175.877 23.2876 176.238 24.2972 177.139 24.9823C177.931 25.5592 178.868 25.6674 179.877 25.3429C180.562 25.1266 180.922 24.6578 181.247 23.9727C181.355 23.8646 181.355 23.7564 181.607 23.7564C182.508 23.7564 183.553 23.7564 184.454 23.6482C184.454 23.8646 184.346 24.0088 184.346 24.117C183.661 26.2804 182.184 27.5423 179.877 27.9029C178.508 28.1193 177.247 28.0111 175.985 27.326C174.4 26.5328 173.355 25.1626 172.886 23.3237C172.418 21.1603 172.67 19.1051 174.04 17.2662C176.31 14.1653 181.139 14.3095 183.409 17.3743C184.094 18.5642 184.67 20.7637 184.562 22.1338ZM22.3997 19.8262L27.6609 19.9344C27.7691 18.6724 26.76 17.6628 25.3907 17.5186C23.9853 17.3383 22.5078 18.456 22.3997 19.8262ZM30.9763 22.1338H22.1835C22.1835 22.3502 22.1835 22.6026 22.2916 22.8189C22.3997 23.2877 22.5078 23.7203 22.76 24.1891C23.3366 25.2347 24.3456 25.5592 25.4988 25.4511C26.5438 25.3429 27.2285 24.766 27.5528 23.8646C27.5528 23.7564 27.6609 23.7564 27.7691 23.7564C28.67 23.7564 29.715 23.6482 30.6159 23.6482H30.724C30.6159 24.3333 30.3637 24.9102 30.0393 25.4871C29.1384 26.8573 27.8772 27.6505 26.2555 27.9029C24.8862 28.1193 23.5168 28.0111 22.2555 27.326C20.5258 26.4246 19.6249 24.9102 19.1564 23.1074C18.7961 21.2685 18.9402 19.4656 19.9492 17.8431C22.0033 14.3095 27.2646 13.9489 29.679 17.3743C30.5799 18.7445 31.0483 20.331 31.0483 22.0617C31.0844 22.0257 31.0844 22.0257 30.9763 22.1338ZM157.571 21.7733C156.778 21.8814 155.985 21.8814 155.301 22.1338C154.724 22.242 154.256 22.3502 153.715 22.6026C153.031 22.8189 152.814 23.3958 152.814 24.0809C152.814 24.766 153.283 25.2347 153.967 25.4511C155.012 25.8116 156.238 25.4511 157.067 24.6578C157.715 23.8285 157.715 22.8189 157.571 21.7733ZM157.571 19.718C157.571 19.3575 157.463 18.9248 157.463 18.5642C157.355 17.8791 156.886 17.4104 156.202 17.3022C155.733 17.194 155.157 17.194 154.724 17.3022C153.931 17.5186 153.355 17.9873 153.355 18.8887C153.355 18.9969 153.355 19.1051 153.355 19.2493L150.4 19.1411C150.4 18.5642 150.508 17.9873 150.868 17.5546C151.337 16.6532 152.13 15.9681 153.031 15.6076C154.868 14.9225 156.67 14.9225 158.508 15.7157C159.985 16.2926 160.67 17.5546 160.778 19.0329C160.886 20.4031 160.778 21.7733 160.778 23.2516C160.778 23.9367 160.778 24.6217 160.778 25.415H161.823V27.8308H157.931V26.4606C157.823 26.5688 157.571 26.8212 157.463 26.9294C155.625 28.5159 152.562 28.4077 150.832 26.8212C149.355 25.3429 149.355 22.3502 151.625 21.2324C152.67 20.6555 153.679 20.4392 154.832 20.331C155.733 20.2228 156.67 20.1146 157.679 19.9704C157.463 19.718 157.463 19.718 157.571 19.718ZM65.7151 17.4464C66.1835 16.9777 66.5079 16.545 66.9763 16.0763C68.0214 15.1749 69.1385 14.8143 70.5079 15.0306C71.5529 15.247 72.0934 15.8239 72.4538 16.7614C72.5619 16.9777 72.5619 17.2301 72.67 17.4464C72.7781 17.3383 72.8862 17.0859 73.0304 16.9777C73.607 16.0763 74.3998 15.247 75.5529 15.0306C76.598 14.8143 77.607 14.8143 78.3998 15.4994C79.0844 16.0763 79.3007 16.8695 79.4448 17.6628C79.4448 17.8791 79.4448 18.2397 79.4448 18.456C79.4448 20.8718 79.4448 23.2516 79.4448 25.5592V25.9198H81.1745V27.3981H77.7511V27.0376C77.7511 24.1891 77.7511 21.4487 77.7511 18.5642C77.7511 18.2036 77.7511 17.9873 77.643 17.6628C77.4268 16.509 76.598 15.9321 75.3727 16.2926C74.4718 16.509 73.8953 17.0859 73.3187 17.8791C72.8502 18.5642 72.634 19.3575 72.634 20.1507C72.634 21.9896 72.634 23.7924 72.634 25.6313V25.9919H74.4718V27.4702H70.7241V27.1097C70.7241 24.2612 70.7241 21.3766 70.7241 18.5281C70.7241 18.1676 70.7241 17.8431 70.616 17.4825C70.3998 16.7974 69.9313 16.4369 69.2466 16.3287C68.2015 16.2205 67.5169 16.6893 66.8322 17.3743C66.0394 18.2758 65.5709 19.2132 65.679 20.4752C65.679 22.2059 65.679 23.9006 65.679 25.7395V26.1001H67.5169V27.5784H62.2916V26.1001H64.0214V16.6171H62.2916V15.1388H65.9313C65.607 15.9321 65.607 16.6532 65.7151 17.4464ZM44.7781 20.98H40.9943C40.9943 20.5113 40.9943 19.9344 41.1024 19.5017H46.8321V27.5063H45.0303V24.9823C44.9222 25.0905 44.9222 25.0905 44.9222 25.1987C43.7691 26.9294 42.2916 27.8308 40.2375 27.939C38.652 27.939 37.3907 27.3621 36.1294 26.3525C34.7601 25.0905 33.9673 23.504 33.6069 21.7733C33.1384 19.5017 33.3907 17.194 34.2916 15.0306C34.9763 13.5523 36.0213 12.2903 37.4988 11.6052C39.9132 10.4514 42.8682 10.9202 44.5979 13.4441C44.5979 13.5523 44.706 13.5523 44.8141 13.6605V11.1365H46.5439V16.2926H44.67C44.5619 15.6075 44.2015 15.0306 43.8772 14.4537C42.9763 13.1917 41.715 12.5067 40.2375 12.5067C38.8682 12.5067 37.715 13.1917 36.9222 14.2374C36.1294 15.1388 35.7691 16.2926 35.5529 17.5546C35.3366 19.2853 35.4447 20.8718 36.0213 22.4583C36.3817 23.3598 36.8141 24.1891 37.6069 24.8741C38.9763 26.1361 40.706 26.3525 42.2916 25.5592C43.8772 24.8741 44.9222 22.9271 44.7781 20.98ZM93.2466 21.3406C93.2466 21.1242 93.2466 20.8718 93.2466 20.5473C93.1385 19.6459 92.8863 18.7084 92.4538 17.9152C91.5529 16.6532 90.0394 16.1845 88.67 16.8695C87.4088 17.4464 86.1475 19.0329 86.3998 20.7637C86.5079 21.6651 86.3998 22.4944 86.616 23.3958C86.8322 24.8741 88.3457 26.1361 89.8232 26.3525C91.0845 26.4606 92.2376 25.7756 92.7782 24.6218C93.0304 23.504 93.2466 22.4583 93.2466 21.3406ZM84.4538 12.1822H82.8682V10.7038H86.2917V17.807C86.3998 17.6988 86.3998 17.5907 86.5079 17.5907C86.8682 17.0138 87.4088 16.4368 87.9854 16.0042C89.5709 14.8503 91.5169 14.8504 93.1385 16.2205C94.2917 17.1219 94.8683 18.3839 95.1926 19.7541C95.661 21.8093 95.4088 23.7564 94.2917 25.5953C93.7151 26.4967 92.9223 27.326 91.8773 27.7587C90.2917 28.3356 88.4538 27.8669 87.3007 26.6049C87.0845 26.2443 86.7241 25.9198 86.3998 25.5592V27.7226H82.8682V26.2443H84.598V12.1822H84.4538ZM57.0304 21.3406C56.9223 21.3406 56.8141 21.3406 56.8141 21.3406C55.7691 21.4488 54.7601 21.7012 53.6069 21.9175C52.9222 22.0257 52.2376 22.2781 51.661 22.7107C51.3006 22.9271 50.9763 23.2877 50.9763 23.8646C50.7601 25.2347 51.7691 26.6049 53.2466 26.713C54.8322 26.8212 56.5619 25.5592 56.8862 23.9727C57.0304 22.9271 56.8862 22.1338 57.0304 21.3406ZM58.6159 26.2443H60.3457C60.3457 26.7131 60.4538 27.29 60.4538 27.7226H56.9223V25.5592C56.8141 25.6674 56.8141 25.6674 56.8141 25.6674C55.9132 27.1457 54.5439 27.8308 52.8141 27.939C51.3367 28.0471 50.1835 27.4702 49.3907 26.2083C48.706 25.0544 48.4898 23.9367 49.1745 22.6747C49.5349 21.8814 50.2195 21.5209 51.0123 21.1964C52.0574 20.7276 53.1745 20.5113 54.3277 20.2949C55.1204 20.1868 56.0574 20.0786 56.9583 19.9344C56.9583 19.3575 56.9583 18.6724 56.8502 18.0955C56.634 17.194 55.9493 16.7253 55.1205 16.509C54.4358 16.2926 53.643 16.4008 52.9583 16.509C52.0574 16.7253 51.4808 17.4104 51.2286 18.2397C51.1204 18.456 51.1204 18.6003 50.7601 18.6003C50.1835 18.6003 49.715 18.6003 49.1745 18.6003C49.5349 17.1219 50.2195 16.0763 51.5889 15.3912C53.1745 14.7061 54.7961 14.7061 56.3817 15.3912C57.643 15.9681 58.3277 16.9777 58.5439 18.3479C58.5439 18.7084 58.5439 18.9248 58.5439 19.2493C58.5439 21.4127 58.5439 23.4679 58.5439 25.6674L58.6159 26.2443ZM104.886 20.4031H111.625C111.625 19.3575 111.265 18.5642 110.832 17.771C110.148 16.8695 109.355 16.4008 108.202 16.6171C106.039 16.8695 105.03 18.456 104.886 20.4031ZM113.715 21.7733H104.814C104.922 22.242 104.922 22.5665 105.03 22.9271C105.139 23.6122 105.391 24.2972 105.823 24.9823C106.724 26.3525 108.778 26.8212 110.039 26.028C110.616 25.6674 110.94 25.1265 111.301 24.5496C111.409 24.3333 111.517 24.1891 111.769 24.1891C112.346 24.1891 112.922 24.1891 113.499 24.1891C113.391 24.4054 113.391 24.6578 113.283 24.8741C112.49 26.713 110.328 27.975 108.238 27.7226C105.391 27.5063 103.445 25.5592 102.976 22.6747C102.616 20.8358 102.868 19.0329 103.877 17.4104C104.67 16.0402 105.931 15.1388 107.517 14.8864C109.787 14.5258 111.877 15.6797 112.886 17.7349C113.463 18.8887 113.679 20.1507 113.679 21.5209C113.715 21.7733 113.715 21.7733 113.715 21.7733ZM167.517 25.1987H168.994V27.6145H163.265V25.1987H164.526V17.6628H163.265V15.247H167.481V17.0859C167.589 16.9777 167.697 16.7253 167.697 16.6171C168.166 15.9321 168.742 15.247 169.643 15.1388C170.328 14.9225 171.121 15.0306 171.805 15.1388L171.913 15.247C171.913 16.1484 171.913 17.0859 171.913 17.9873C171.553 17.9873 171.229 17.8791 170.868 17.8791C169.967 17.771 169.031 17.9873 168.346 18.5642C167.769 19.0329 167.553 19.718 167.445 20.4031C167.445 21.8814 167.445 23.3598 167.445 24.9823C167.409 25.0905 167.409 25.0905 167.517 25.1987ZM97.9313 12.074H96.2016V10.7038H99.7331V26.1361H101.319V27.6145H96.2016V26.1361H97.9313V12.074ZM190.4 23.1434C190.4 23.8285 190.508 24.5136 190.76 25.1987C191.229 26.1001 191.913 26.677 192.922 26.677C193.931 26.677 194.76 26.2083 195.193 25.3068C195.409 24.7299 195.553 24.2612 195.661 23.5761C195.769 22.6747 195.661 21.7372 195.193 20.944C194.724 20.0425 193.931 19.5738 192.922 19.5738C191.913 19.5738 191.337 20.1507 190.868 20.944C190.4 21.6651 190.4 22.3502 190.4 23.1434ZM196.995 22.9271C196.995 24.0809 196.778 25.0905 196.202 25.8837C195.301 27.2539 194.04 27.7226 192.418 27.6145C190.94 27.5063 189.895 26.5688 189.319 25.1987C188.742 23.7203 188.634 22.0978 189.319 20.6194C190.004 19.1411 191.265 18.3479 192.958 18.3479C194.652 18.3479 195.805 19.1411 196.49 20.6194C196.886 21.4488 196.995 22.242 196.995 22.9271ZM202.04 27.5063H198.04V26.4606H199.301V19.718H198.04V18.6724H200.67V20.5113C201.139 19.718 201.715 18.9248 202.616 18.5642C203.085 18.456 203.877 18.456 204.346 18.5642V19.8262C204.13 19.8262 203.877 19.8262 203.661 19.718C202.076 19.6099 200.706 20.7637 200.706 22.3502C200.706 23.6122 200.706 24.9823 200.706 26.2443V26.3525H202.184L202.04 27.5063ZM186.04 26.028H187.517V27.5063H186.04V26.028ZM214.364 4.50204V5.8722C214.832 5.8722 215.265 5.8722 215.733 5.8722C215.841 5.8722 215.95 5.8722 216.094 5.76403C216.454 5.65586 216.562 5.40347 216.454 4.97078C216.454 4.61022 216.238 4.39388 215.877 4.39388C215.409 4.50205 214.941 4.50204 214.364 4.50204ZM216.31 6.23277C216.778 6.34094 216.886 6.70151 216.886 7.02602C216.886 7.35053 216.995 7.81928 216.995 8.17984C216.31 8.17984 216.418 8.28801 216.31 7.60293C216.31 7.38659 216.31 7.1342 216.202 6.91786C216.094 6.55729 215.986 6.34094 215.517 6.34094C215.049 6.34094 214.616 6.34094 214.148 6.34094V8.07167H213.571V3.96119C213.679 3.96119 213.787 3.96119 214.04 3.96119C214.616 3.96119 215.193 3.96119 215.769 3.96119C216.346 3.96119 216.67 4.32176 216.814 4.75445C217.139 5.43953 216.886 5.8722 216.31 6.23277Z" fill="#A3A3A0"/>
</svg>
