<svg width="108" height="36" viewBox="0 0 108 36" fill="none" xmlns="http://www.w3.org/2000/svg">
<path d="M40.422 14.2949C40.4907 14.5526 40.4048 14.7073 40.1986 14.776L38.2228 15.3602C37.9822 15.4289 37.862 15.3602 37.776 15.1196C37.4668 14.1059 36.8139 13.5733 35.594 13.5733C33.7384 13.5733 33.1027 14.6729 33.1027 16.1505V19.5525C33.1027 21.0301 33.7212 22.1297 35.594 22.1297C37.1231 22.1297 37.9307 21.4252 37.9307 19.8617V19.415H35.9204C35.7486 19.415 35.6455 19.3291 35.6455 19.1229V17.233C35.6284 17.0955 35.7314 16.958 35.8861 16.9409C35.9033 16.9409 35.9204 16.9409 35.9204 16.9409H40.3876C40.5766 16.9409 40.6797 17.0268 40.6797 17.2158V20.0335C40.6797 22.7138 38.7038 24.7413 35.6284 24.7413C31.9859 24.7413 30.2849 22.5764 30.2849 19.6212V16.0302C30.2849 13.075 31.9859 10.9102 35.6284 10.9102C38.5664 10.9273 39.8894 12.6111 40.422 14.2949ZM50.4388 17.6453V24.243C50.456 24.3805 50.3357 24.5007 50.1983 24.5179C50.1811 24.5179 50.1811 24.5179 50.1639 24.5179H48.1537C48.0162 24.5351 47.8788 24.432 47.8616 24.2774C47.8616 24.2602 47.8616 24.243 47.8616 24.243V23.1606C47.2774 24.1399 46.2293 24.7413 45.0782 24.7241C43.171 24.7241 41.9511 23.5042 41.9511 21.6142C41.9511 19.7758 43.1023 18.6934 45.9201 18.4872C46.5214 18.4357 47.14 18.4357 47.7585 18.47V17.7312C47.7585 16.7519 47.2431 16.3567 46.3668 16.3567C45.4734 16.3567 45.2156 16.7175 44.9751 17.2845C44.8892 17.5079 44.8033 17.5422 44.6143 17.4907L42.604 16.9752C42.3979 16.9237 42.3807 16.8034 42.415 16.666C42.69 15.2227 44.0645 14.1575 46.4699 14.1575C49.0127 14.1746 50.4388 15.3945 50.4388 17.6453ZM47.7585 21.116V20.1538C47.2259 20.1366 46.6761 20.1538 46.1434 20.2053C45.1125 20.3256 44.5799 20.6521 44.5799 21.4252C44.5799 22.1297 45.061 22.5249 45.8342 22.5249C46.7276 22.5249 47.432 22.0438 47.7585 21.116ZM57.6894 14.1746C58.9608 14.1746 59.8027 14.9306 60.1979 16.0131C60.9539 14.9134 61.8645 14.1746 63.1359 14.1746C64.9056 14.1746 65.9193 15.5835 65.9193 17.6797V24.243C65.9193 24.4148 65.7647 24.5179 65.5929 24.5179H63.4967C63.3077 24.5179 63.1703 24.4148 63.1703 24.243V18.1608C63.1703 17.2501 62.7751 16.7003 62.0535 16.7003C61.2975 16.7003 60.7477 17.3189 60.49 18.2638V24.243C60.5072 24.3805 60.3869 24.5007 60.2494 24.5179H60.2323H57.9643C57.7925 24.5179 57.7238 24.4148 57.7238 24.243V18.1608C57.7238 17.2501 57.3114 16.7003 56.607 16.7003C55.8338 16.7003 55.284 17.3532 55.0435 18.2982V24.2602C55.0606 24.3976 54.9575 24.5179 54.8201 24.5351C54.8029 24.5351 54.7857 24.5351 54.7685 24.5351H52.5521C52.4147 24.5523 52.2944 24.4492 52.2772 24.3117C52.2772 24.2945 52.2772 24.2774 52.2772 24.2602V14.6729C52.2772 14.5355 52.3975 14.4152 52.535 14.4152H52.5521H54.6826C54.8201 14.398 54.9404 14.5011 54.9575 14.6557V14.6729V15.8241C55.5417 14.965 56.418 14.1746 57.6894 14.1746ZM77.4138 14.398C77.4653 14.6385 77.3966 14.8104 77.1732 14.8791L75.2317 15.4461C74.9912 15.5148 74.8709 15.4289 74.785 15.2055C74.5101 14.2949 74.029 13.5561 72.6889 13.5561C71.0222 13.5561 70.4896 14.6557 70.4896 16.1333V19.5353C70.4896 21.0129 71.091 22.1125 72.6889 22.1125C74.1149 22.1125 74.6647 21.305 74.8881 20.3084C74.9396 20.0851 75.0943 19.982 75.3348 20.0679L77.2763 20.6864C77.4997 20.7552 77.5684 20.927 77.5168 21.1675C77.0529 23.1434 75.6269 24.7584 72.6717 24.7584C69.3385 24.7584 67.6719 22.5936 67.6719 19.6384V16.0474C67.6719 13.0922 69.39 10.9273 72.6717 10.9273C75.5582 10.9273 76.9155 12.4565 77.4138 14.398ZM87.1557 17.6453V24.243C87.1729 24.3805 87.0526 24.5007 86.9151 24.5179C86.8979 24.5179 86.8979 24.5179 86.8808 24.5179H84.8705C84.7331 24.5351 84.5956 24.432 84.5784 24.2774C84.5784 24.2602 84.5784 24.243 84.5784 24.243V23.1606C83.9943 24.1399 82.9462 24.7413 81.795 24.7241C79.8879 24.7241 78.668 23.5042 78.668 21.6142C78.668 19.7758 79.8192 18.6934 82.6369 18.4872C83.2383 18.4357 83.8568 18.4357 84.4754 18.47V17.7312C84.4754 16.7519 83.9599 16.3567 83.0837 16.3567C82.1902 16.3567 81.9325 16.7175 81.692 17.2845C81.606 17.5079 81.5201 17.5422 81.3311 17.4907L79.3209 16.9752C79.1147 16.9237 79.0976 16.8034 79.1319 16.666C79.4068 15.2227 80.7813 14.1575 83.1867 14.1575C85.7296 14.1746 87.1557 15.3945 87.1557 17.6453ZM84.4582 21.116V20.1538C83.9256 20.1366 83.3757 20.1538 82.8431 20.2053C81.8122 20.3256 81.2796 20.6521 81.2796 21.4252C81.2796 22.1297 81.7607 22.5249 82.5338 22.5249C83.4445 22.5249 84.1317 22.0438 84.4582 21.116ZM94.9733 14.587V16.5457C94.9733 16.7862 94.8873 16.8721 94.6468 16.8721H94.3547C92.8943 16.8721 92.0352 17.525 91.7431 18.6246V24.2602C91.7603 24.3976 91.6572 24.5179 91.5198 24.5351H91.5026H89.2003C89.0628 24.5351 88.9597 24.4148 88.9597 24.2774C88.9597 24.2774 88.9597 24.2774 88.9597 24.2602V14.6557C88.9597 14.5183 89.0628 14.398 89.1831 14.398C89.2003 14.398 89.2174 14.398 89.2174 14.398H91.2964C91.5198 14.398 91.5713 14.5355 91.5713 14.6901V16.0474C92.0524 15.154 92.9458 14.2777 94.5094 14.2777C94.9045 14.2777 94.9733 14.3293 94.9733 14.587ZM98.5642 20.3084V20.6864C98.5642 21.7517 99.114 22.4905 100.403 22.4905C101.657 22.4905 102.018 22.0094 102.344 21.4081C102.516 21.1332 102.585 21.0988 102.877 21.2191L104.32 21.9579C104.612 22.1125 104.629 22.2499 104.509 22.5249C103.89 23.9337 102.327 24.7413 100.403 24.7413C97.4818 24.7413 95.9354 23.0059 95.9354 20.6349V18.2982C95.9354 15.9959 97.3787 14.1918 100.368 14.1918C103.22 14.1918 104.612 15.9959 104.612 18.2467V19.8617C104.612 20.1366 104.526 20.3256 104.131 20.3256L98.5642 20.3084ZM98.5642 18.1608V18.5044H102.086V18.1608C102.086 17.1814 101.537 16.4082 100.334 16.4082C99.1312 16.4082 98.5642 17.1814 98.5642 18.1608Z" fill="#A3A3A0"/>
<path d="M14.1514 2.97412H1.88385C1.67768 2.97412 1.50586 3.14594 1.50586 3.35211V21.1865C1.50586 27.5437 6.66031 32.7153 13.0346 32.7153H14.1514C20.5086 32.7153 25.663 27.5608 25.663 21.1865V14.5029C25.6802 8.12857 20.5258 2.97412 14.1514 2.97412ZM21.9862 21.3755C21.9862 25.7052 18.7904 28.9869 13.8422 28.9869C7.9661 28.9869 5.21706 25.4991 5.21706 20.7226V14.9324C5.21706 10.156 7.9661 6.66814 13.8422 6.66814C18.6015 6.66814 20.7491 9.38282 21.6082 12.0975C21.7285 12.5099 21.5739 12.7504 21.2474 12.8707L18.0516 13.8156C17.6736 13.9359 17.4675 13.8156 17.3472 13.4377C16.8489 11.8054 15.7837 10.9292 13.8422 10.9292C10.8354 10.9292 9.82171 12.6989 9.82171 15.0871V20.5852C9.82171 22.9734 10.8182 24.7431 13.8422 24.7431C16.3163 24.7431 17.6221 23.5919 17.6221 21.0834V20.379H14.3233C14.0655 20.379 13.8765 20.2243 13.8765 19.9151V16.874C13.8765 16.5819 14.0484 16.3929 14.3233 16.3929H21.5223C21.8144 16.3929 21.9862 16.5475 21.9862 16.8396V21.3755Z" fill="#A3A3A0"/>
</svg>
