<svg width="130" height="36" viewBox="0 0 130 36" fill="none" xmlns="http://www.w3.org/2000/svg">
<path d="M1.5741 14.4938C1.5741 22.1506 1.56901 22.0153 1.85397 23.0141C2.59691 25.6201 4.70866 27.5811 7.35981 28.1221C8.04168 28.2573 9.42068 28.2469 10.1076 28.0961C11.0999 27.8776 11.8276 27.5603 12.6723 26.9881C15.2776 25.204 16.4226 21.8229 15.4608 18.7331C15.1148 17.6356 14.55 16.6941 13.7103 15.8306C12.6672 14.759 11.4459 14.0932 9.98551 13.7967C9.30873 13.6615 7.97044 13.6719 7.28857 13.8227C6.13346 14.0776 5.09539 14.577 4.18454 15.326L4.01662 15.4613V12.2779V9.09965L2.79536 8.26739L1.5741 7.43512V14.4938ZM9.82776 16.3247C11.105 16.6628 12.1939 17.5419 12.8148 18.7331C14.0513 21.0947 13.1201 24.0336 10.7488 25.2456C9.84812 25.7033 8.73881 25.8542 7.78216 25.6513C6.04696 25.282 4.71375 24.0336 4.18454 22.2754C4.06241 21.8645 4.04715 21.7345 4.04715 20.9854C4.04206 20.2676 4.05732 20.0959 4.1591 19.737C4.6018 18.1661 5.73146 16.9385 7.21224 16.434C7.46667 16.3455 7.81269 16.2519 7.97552 16.2259C8.42332 16.1531 9.37997 16.2051 9.82776 16.3247Z" fill="#A3A3A0"/>
<path d="M32.3752 14.6019C32.3905 22.5865 32.3701 22.0923 32.7467 23.2471C33.4845 25.515 35.291 27.2991 37.5096 27.9546C37.993 28.095 38.8784 28.2458 39.2499 28.2458H39.484V27.0027V25.7647L39.0769 25.7283C37.9828 25.6346 36.8684 25.0728 36.095 24.225C35.5352 23.6164 35.1739 22.9298 34.9399 22.0507C34.833 21.6241 34.8279 21.5409 34.8279 18.9089V16.204L36.9041 16.1884L38.9751 16.178V14.9296V13.6812H36.8888H34.8025V11.3769V9.07257L33.6474 8.29232C33.0164 7.86579 32.4668 7.49647 32.4261 7.47566C32.3651 7.43925 32.36 8.51599 32.3752 14.6019Z" fill="#A3A3A0"/>
<path d="M57.462 14.6513C57.4772 21.7567 57.4772 21.8764 57.5841 22.3653C57.9098 23.8842 58.5153 25.0234 59.5534 26.0897C60.1131 26.6567 60.7695 27.156 61.3598 27.4629C62.1536 27.8687 63.2019 28.16 64.1076 28.2276L64.5707 28.2588V27V25.7464H64.3315C63.9652 25.7464 63.2171 25.5695 62.7846 25.3875C61.7008 24.9245 60.7288 23.9466 60.281 22.8699C60.1996 22.6618 60.0826 22.3289 60.0215 22.1312C59.9198 21.7723 59.9198 21.6475 59.8994 15.4211L59.8841 9.0751L59.5432 8.84623C59.3549 8.71619 58.8054 8.34687 58.3219 8.02437L57.4416 7.43658L57.462 14.6513Z" fill="#757573"/>
<path d="M94.2877 17.7607V28.0859H95.5089H96.7302V25.9012V23.7114L97.7479 22.4161C98.3076 21.6983 98.7758 21.1157 98.786 21.1157C98.7961 21.1157 99.6154 22.6814 100.603 24.6008L102.404 28.0859H103.813C104.592 28.0859 105.228 28.0755 105.228 28.0703C105.228 28.0599 104.165 26.0209 102.862 23.5449C101.559 21.0637 100.491 19.0195 100.486 18.9935C100.475 18.9726 101.401 17.7659 102.546 16.3146C103.686 14.8633 104.617 13.667 104.617 13.6514C104.617 13.6358 103.92 13.6254 103.076 13.6254H101.529L99.1676 16.6371C97.87 18.2964 96.7912 19.6541 96.7709 19.6541C96.7454 19.6593 96.7302 17.2769 96.7302 14.364V9.07391L96.2315 8.741C95.9618 8.55374 95.4122 8.18443 95.0153 7.91914L94.2877 7.43539V17.7607Z" fill="#757573"/>
<path d="M41.6212 14.5716C41.6212 22.3845 41.611 22.088 41.9367 23.144C42.6236 25.3651 44.3639 27.1648 46.5062 27.8671C47.3763 28.1532 47.7732 28.2156 48.7197 28.2156C49.6713 28.2156 50.0885 28.148 50.9332 27.8723C52.7244 27.2793 54.2459 25.9373 55.1059 24.1895C55.345 23.7057 55.6503 22.7174 55.7419 22.1557C55.8437 21.5159 55.8386 20.3871 55.7369 19.7577C55.2483 16.7876 53.0501 14.4728 50.1038 13.8226C49.4219 13.677 48.1345 13.6614 47.4527 13.8018C46.4044 14.0099 45.29 14.504 44.5115 15.1074C44.2723 15.2947 44.0586 15.4455 44.0433 15.4455C44.0281 15.4455 44.0128 14.0099 44.0128 12.2517V9.0579L42.8577 8.28806C42.2267 7.86152 41.6873 7.50261 41.6619 7.49741C41.6415 7.487 41.6212 10.6704 41.6212 14.5716ZM49.8901 16.3246C50.114 16.387 50.5058 16.5379 50.7551 16.6627C53.7167 18.1556 54.3121 22.1348 51.9204 24.4496C51.5235 24.8293 51.2233 25.0322 50.6635 25.3027C49.9359 25.6512 49.6153 25.7188 48.6943 25.7136C47.992 25.7084 47.8597 25.698 47.4577 25.5731C45.7429 25.0374 44.4911 23.6641 44.1298 21.9216C44.0331 21.4482 44.0331 20.4651 44.1349 19.9866C44.5369 18.0828 46.0075 16.6159 47.8954 16.2466C48.3991 16.1477 49.366 16.1894 49.8901 16.3246Z" fill="#757573"/>
<path d="M120.886 13.6618C120.865 13.6774 120.85 16.9336 120.85 20.8921V28.0859H122.071H123.288L123.303 24.1431C123.323 20.2575 123.323 20.2002 123.435 19.7893C123.578 19.2691 123.888 18.5929 124.178 18.182C124.432 17.8179 124.992 17.2561 125.328 17.022C125.964 16.5799 126.844 16.2574 127.567 16.195L127.974 16.1586V14.9102V13.6618L127.531 13.6982C126.59 13.7762 125.618 14.0467 124.794 14.468C124.382 14.6813 123.557 15.2327 123.445 15.3731C123.41 15.4147 123.364 15.4459 123.338 15.4459C123.313 15.4459 123.293 15.035 123.293 14.5356V13.6253H122.107C121.451 13.6253 120.901 13.641 120.886 13.6618Z" fill="#757573"/>
<path d="M23.1802 13.7305C21.5264 13.9438 20.1576 14.6356 18.9771 15.858C17.9339 16.9347 17.3487 18.0375 17.0332 19.52C16.8704 20.3002 16.8704 21.6526 17.0332 22.4121C17.191 23.1299 17.4047 23.7437 17.71 24.3367C18.7074 26.2873 20.5087 27.6605 22.6663 28.1183C23.3074 28.2535 24.7221 28.2535 25.3632 28.1183C28.5741 27.4369 30.8792 24.7684 31.1184 21.4394L31.154 20.9608H29.9328H28.7115L28.6759 21.377C28.6148 22.126 28.3146 22.9895 27.8821 23.6501C27.5971 24.087 26.8542 24.8048 26.4064 25.0701C25.0986 25.8504 23.572 25.9492 22.1625 25.351C21.7605 25.1794 21.099 24.7268 20.8191 24.4303L20.6003 24.2015L25.6889 21.429C28.4927 19.9049 30.7825 18.6305 30.7825 18.5941C30.7825 18.4536 30.1007 17.148 29.8055 16.7267C28.7776 15.2442 27.1951 14.1987 25.4243 13.8294C24.8391 13.7097 23.7298 13.6577 23.1802 13.7305ZM25.1597 16.3262C25.8873 16.5238 26.7778 17.0232 27.2104 17.4913L27.3834 17.6734L26.4216 18.1935C25.8975 18.4796 24.1165 19.4523 22.4627 20.3522L19.4605 21.9908L19.4147 21.8503C19.3892 21.7775 19.3689 21.3614 19.3689 20.9348C19.3689 20.2326 19.3791 20.1078 19.5063 19.6916C20.0457 17.8762 21.4196 16.6018 23.2158 16.2481C23.7145 16.1493 24.6356 16.1909 25.1597 16.3262Z" fill="#A3A3A0"/>
<path d="M71.4198 13.7302C68.7076 14.0787 66.4381 15.9357 65.5425 18.5313C65.2525 19.3792 65.1609 19.9462 65.1609 20.9605C65.1558 21.9852 65.2169 22.3806 65.5171 23.3012C66.316 25.7616 68.3514 27.5718 70.9313 28.1232C71.5369 28.2532 72.9719 28.2532 73.5774 28.1232C76.4931 27.4938 78.6151 25.3455 79.2359 22.4014C79.3936 21.6419 79.3936 20.2791 79.2359 19.5196C78.9255 18.0476 78.3098 16.8928 77.2717 15.8317C76.2235 14.7549 75.0022 14.0891 73.5723 13.8082C73.0634 13.7094 71.9083 13.6678 71.4198 13.7302ZM73.3993 16.3258C73.8471 16.4455 74.5137 16.7524 74.8902 17.0124C75.2363 17.2569 75.796 17.8187 76.0504 18.1828C76.7832 19.2284 77.0885 20.6432 76.8443 21.8448C76.6356 22.8903 76.1878 23.707 75.4195 24.4508C74.4832 25.3559 73.2924 25.8032 71.9999 25.7304C70.8347 25.6628 69.8882 25.2415 69.0333 24.3988C68.3463 23.7226 67.9393 23.0152 67.695 22.0789C67.5525 21.5223 67.5627 20.3467 67.7154 19.8005C68.2446 17.9123 69.6185 16.6067 71.4555 16.2478C71.9541 16.149 72.8752 16.1906 73.3993 16.3258Z" fill="#A3A3A0"/>
<path d="M70.285 17.8914C69.9135 18.1411 69.3283 18.7653 69.1502 19.1086L69.023 19.3479L71.4299 21.8082L73.8317 24.2634L74.0709 24.1334C74.3864 23.9669 75.1954 23.1399 75.3583 22.8174L75.4855 22.5729L73.0939 20.1281C71.7759 18.7809 70.6819 17.6833 70.6514 17.6833C70.6208 17.6833 70.458 17.777 70.285 17.8914Z" fill="#757573"/>
<path d="M86.8075 13.7358C85.6066 13.8867 84.3141 14.4224 83.3727 15.1611C82.8537 15.5668 82.0955 16.3886 81.7546 16.9088C81.1846 17.7827 80.8233 18.7294 80.6402 19.7905C80.5129 20.5708 80.5333 21.7567 80.6961 22.4746C81.3424 25.3667 83.3982 27.4474 86.2529 28.0976C86.9398 28.2536 88.2628 28.264 88.96 28.1236C89.5146 28.0091 90.2016 27.7803 90.7104 27.541C91.1226 27.3485 91.9419 26.8076 92.2625 26.5163L92.4558 26.3446L91.6315 25.4187L90.8122 24.498L90.6799 24.6229C90.4306 24.8517 89.9166 25.1794 89.4994 25.3667C88.2934 25.8973 86.7668 25.8608 85.6219 25.2731C84.6347 24.7633 83.9274 24.0299 83.444 23.0155C83.0878 22.2665 82.9707 21.6839 83.0063 20.7788C83.0369 19.9622 83.1285 19.5877 83.449 18.9062C83.8765 18.0064 84.421 17.3926 85.23 16.8828C86.8279 15.8737 88.8582 15.9621 90.4153 17.1013C90.6188 17.2521 90.8071 17.3614 90.8326 17.3353C90.8529 17.3145 91.2142 16.8984 91.6366 16.4147L92.4049 15.5304L92.237 15.3847C91.433 14.6669 90.1303 14.0427 88.9447 13.8086C88.4206 13.7046 87.3265 13.6682 86.8075 13.7358Z" fill="#757573"/>
<path d="M111.569 13.7302C108.388 14.1411 105.89 16.5651 105.361 19.7589C105.254 20.3935 105.254 21.5223 105.361 22.1621C105.452 22.7343 105.763 23.7174 105.997 24.1907C106.999 26.2298 108.821 27.6394 111.08 28.1232C111.681 28.2532 113.075 28.2532 113.675 28.1232C115.935 27.6394 117.756 26.235 118.759 24.1907C119.146 23.4105 119.476 22.0841 119.476 21.3142V20.9605H118.286H117.095L117.064 21.153C117.049 21.2622 117.024 21.4911 117.008 21.6627C116.968 22.032 116.769 22.7031 116.591 23.0672C116.255 23.7434 115.619 24.4924 115.024 24.9138C114.683 25.153 113.915 25.5119 113.497 25.6212C113.223 25.694 112.963 25.7148 112.352 25.7148C111.645 25.7096 111.518 25.6992 111.106 25.5692C110.373 25.3403 109.523 24.8305 109.085 24.3572L108.943 24.2063L114.032 21.4339C117.222 19.6965 119.12 18.6354 119.12 18.5885C119.12 18.4585 118.642 17.4598 118.382 17.0541C117.324 15.3791 115.685 14.2296 113.767 13.8342C113.182 13.7094 112.108 13.6626 111.569 13.7302ZM113.548 16.3258C114.276 16.5183 115.182 17.0385 115.624 17.517L115.767 17.6679L111.823 19.8161C109.655 20.9969 107.864 21.9644 107.844 21.9696C107.701 21.9904 107.666 20.5756 107.793 19.9878C108.2 18.0736 109.666 16.6171 111.553 16.2478C112.062 16.149 113.024 16.1906 113.548 16.3258Z" fill="#757573"/>
</svg>
