<svg width="136" height="36" viewBox="0 0 136 36" fill="none" xmlns="http://www.w3.org/2000/svg">
<path d="M66.2583 29.4742L3.79169 29.4742C3.48432 29.4742 3.18954 29.352 2.97219 29.1347C2.75485 28.9174 2.63275 28.6226 2.63275 28.3152V17.4908C2.63275 14.4908 3.82447 11.6138 5.94573 9.49253C8.067 7.37127 10.944 6.17956 13.944 6.17956L66.2583 6.17956C66.5657 6.17956 66.8605 6.30166 67.0778 6.519C67.2951 6.73634 67.4172 7.03112 67.4172 7.33849V28.3616C67.4172 28.6689 67.2951 28.9637 67.0778 29.1811C66.8605 29.3984 66.5657 29.5205 66.2583 29.5205V29.4742Z" fill="#A3A3A0"/>
<path d="M66.2699 29.7412H3.80327C3.4375 29.7412 3.08671 29.5959 2.82807 29.3372C2.56943 29.0786 2.42413 28.7278 2.42413 28.362V17.5376C2.42413 14.4639 3.64515 11.5161 5.81858 9.34268C7.992 7.16926 10.9398 5.94824 14.0135 5.94824H66.2699C66.6356 5.94824 66.9864 6.09354 67.2451 6.35218C67.5037 6.61082 67.649 6.96161 67.649 7.32737V28.362C67.649 28.7278 67.5037 29.0786 67.2451 29.3372C66.9864 29.5959 66.6356 29.7412 66.2699 29.7412ZM13.9903 6.50453C11.062 6.5076 8.25456 7.67221 6.18395 9.74282C4.11334 11.8134 2.94872 14.6209 2.94566 17.5492V28.3736C2.94566 28.598 3.03479 28.8132 3.19345 28.9719C3.35211 29.1305 3.5673 29.2197 3.79168 29.2197H66.2699C66.381 29.2197 66.491 29.1978 66.5936 29.1553C66.6963 29.1127 66.7895 29.0504 66.8681 28.9719C66.9467 28.8933 67.009 28.8 67.0515 28.6974C67.094 28.5948 67.1159 28.4847 67.1159 28.3736V7.33896C67.1159 7.22786 67.094 7.11785 67.0515 7.01521C67.009 6.91256 66.9467 6.8193 66.8681 6.74074C66.7895 6.66218 66.6963 6.59986 66.5936 6.55734C66.491 6.51482 66.381 6.49294 66.2699 6.49294L13.9903 6.50453Z" fill="#CECECE"/>
<path d="M69.9553 6.22705H132.445C132.752 6.22705 133.047 6.34915 133.265 6.5665C133.482 6.78384 133.604 7.07862 133.604 7.38599V18.2104C133.604 21.2104 132.412 24.0874 130.291 26.2087C128.17 28.3299 125.293 29.5216 122.293 29.5216H69.9553C69.648 29.5216 69.3532 29.3995 69.1358 29.1822C68.9185 28.9649 68.7964 28.6701 68.7964 28.3627V7.33963C68.8084 7.04037 68.9357 6.75736 69.1518 6.54994C69.3679 6.34253 69.6558 6.22681 69.9553 6.22705Z" fill="#757573"/>
<path d="M122.246 29.7413H69.9552C69.5894 29.7413 69.2386 29.596 68.98 29.3374C68.7213 29.0787 68.576 28.7279 68.576 28.3622V7.33909C68.576 6.97332 68.7213 6.62254 68.98 6.3639C69.2386 6.10526 69.5894 5.95996 69.9552 5.95996H132.445C132.811 5.95996 133.162 6.10526 133.42 6.3639C133.679 6.62254 133.824 6.97332 133.824 7.33909V18.1635C133.821 21.2332 132.6 24.1763 130.43 26.3469C128.259 28.5175 125.316 29.7382 122.246 29.7413ZM69.9552 6.50466C69.7308 6.50466 69.5156 6.59379 69.357 6.75245C69.1983 6.91111 69.1092 7.1263 69.1092 7.35068V28.3622C69.1092 28.5866 69.1983 28.8017 69.357 28.9604C69.5156 29.1191 69.7308 29.2082 69.9552 29.2082H122.246C125.175 29.2051 127.982 28.0405 130.053 25.9699C132.123 23.8993 133.288 21.0918 133.291 18.1635V7.33909C133.291 7.11471 133.202 6.89953 133.043 6.74087C132.885 6.58221 132.669 6.49307 132.445 6.49307L69.9552 6.50466Z" fill="#CECECE"/>
<path d="M79.134 25.882C78.6209 25.881 78.1102 25.8108 77.6158 25.6734C77.1064 25.532 76.6217 25.3131 76.1788 25.0244C75.406 24.5313 74.7717 23.8492 74.3361 23.0426C73.9209 22.2764 73.6945 21.4222 73.6755 20.5509C73.6739 20.5287 73.6769 20.5063 73.6843 20.4853C73.6918 20.4642 73.7035 20.4449 73.7187 20.4286C73.7339 20.4123 73.7523 20.3993 73.7728 20.3904C73.7933 20.3816 73.8154 20.377 73.8377 20.3771H77.2798C77.3228 20.3771 77.364 20.3942 77.3945 20.4246C77.4249 20.455 77.442 20.4963 77.442 20.5393C77.4443 20.847 77.5414 21.1465 77.7201 21.3969C77.8599 21.5914 78.0325 21.76 78.2301 21.8953C78.4835 22.0696 78.7805 22.1699 79.0877 22.185C79.3986 22.2006 79.7087 22.141 79.9917 22.0112C80.1783 21.9383 80.3479 21.8279 80.49 21.6867C80.6032 21.5727 80.7007 21.4441 80.7797 21.3042C80.8397 21.1924 80.8789 21.0707 80.8956 20.945C80.9248 20.7568 80.9248 20.5653 80.8956 20.3771C80.8781 20.2478 80.839 20.1224 80.7797 20.0062C80.7044 19.864 80.6065 19.7348 80.49 19.6238C80.3429 19.4859 80.1746 19.3724 79.9917 19.2877L79.4817 19.0907L77.7433 18.4996C77.3379 18.3426 76.9495 18.1446 76.5844 17.9086C76.0824 17.6076 75.642 17.2144 75.2864 16.7496C74.5895 15.8055 74.2637 14.6384 74.3708 13.4698C74.4233 12.8747 74.5927 12.2958 74.8692 11.7662C75.1215 11.2808 75.4546 10.8418 75.8543 10.4682C76.2392 10.1074 76.6819 9.81363 77.1639 9.59899C77.6563 9.3851 78.1814 9.2558 78.7168 9.21654C79.2853 9.17246 79.8571 9.22337 80.4089 9.3672C80.9424 9.4904 81.4517 9.70193 81.9155 9.99303C82.3552 10.2717 82.7466 10.6201 83.0744 11.0245C83.3752 11.4122 83.6101 11.8469 83.7698 12.3109C83.9254 12.7587 84.0114 13.2277 84.0248 13.7016C84.0263 13.7239 84.0233 13.7462 84.0159 13.7673C84.0085 13.7883 83.9968 13.8076 83.9815 13.8239C83.9663 13.8402 83.9479 13.8532 83.9274 13.8621C83.9069 13.871 83.8848 13.8755 83.8625 13.8755H80.5016C80.4623 13.8759 80.4242 13.862 80.3943 13.8364C80.3645 13.8108 80.345 13.7753 80.3393 13.7364C80.3354 13.6254 80.3049 13.517 80.2505 13.4202C80.196 13.3234 80.1192 13.2411 80.0264 13.1801C79.8567 13.0718 79.6736 12.9861 79.4817 12.9251H79.2963C79.1736 12.9035 79.0481 12.9035 78.9254 12.9251C78.7749 12.9502 78.6298 13.0012 78.4966 13.0758C78.3442 13.1645 78.2228 13.298 78.149 13.4582C78.0327 13.6836 78.0078 13.9451 78.0794 14.1884C78.1468 14.4367 78.3037 14.6513 78.5198 14.791C78.7392 14.913 78.9679 15.0176 79.2036 15.1039L79.9917 15.3821L80.745 15.6255C80.9999 15.7104 81.2588 15.8109 81.5215 15.9268C82.4339 16.3276 83.2106 16.9843 83.7577 17.8173C84.3048 18.6502 84.5988 19.6239 84.6042 20.6205C84.6113 21.6248 84.3209 22.6087 83.7698 23.4483C82.9778 24.6389 81.7502 25.4712 80.3509 25.7661C79.9504 25.8466 79.5426 25.8854 79.134 25.882Z" fill="#2F2F2F"/>
<path fill-rule="evenodd" clip-rule="evenodd" d="M128.667 16.5619C128.674 17.4528 128.501 18.3359 128.157 19.1579C127.822 19.953 127.338 20.6769 126.732 21.2903C126.123 21.9061 125.403 22.4015 124.611 22.7506C123.847 23.09 123.024 23.2789 122.189 23.3069C122.167 23.3069 122.146 23.3111 122.126 23.3192C122.107 23.3274 122.089 23.3393 122.074 23.3544C122.059 23.3694 122.047 23.3873 122.039 23.407C122.03 23.4267 122.026 23.4478 122.026 23.4691V25.7174C122.026 25.7605 122.009 25.8017 121.979 25.8322C121.948 25.8626 121.907 25.8797 121.864 25.8797H118.492C118.449 25.8797 118.407 25.8626 118.377 25.8322C118.346 25.8017 118.329 25.7605 118.329 25.7174V9.95592C118.329 9.91289 118.346 9.87162 118.377 9.84119C118.407 9.81077 118.449 9.79367 118.492 9.79367H122.015C122.906 9.8018 123.786 9.99519 124.599 10.3615C125.391 10.7174 126.11 11.2164 126.72 11.8334C127.327 12.4469 127.811 13.1707 128.145 13.9658C128.493 14.787 128.67 15.6702 128.667 16.5619ZM122.015 19.4592C122.015 19.4815 122.019 19.5036 122.028 19.5241C122.037 19.5446 122.05 19.563 122.066 19.5782C122.083 19.5934 122.102 19.6051 122.123 19.6126C122.144 19.62 122.166 19.623 122.189 19.6214C122.526 19.5905 122.856 19.5002 123.162 19.3549C123.508 19.1926 123.823 18.9687 124.089 18.6943C124.357 18.4162 124.569 18.0897 124.715 17.7324C125.018 16.9894 125.018 16.1575 124.715 15.4145C124.569 15.0573 124.357 14.7309 124.089 14.4526C123.823 14.1781 123.508 13.9543 123.162 13.792C122.856 13.6469 122.526 13.5567 122.189 13.5254C122.147 13.5221 122.106 13.5346 122.074 13.5605C122.042 13.5863 122.02 13.6235 122.015 13.6645V19.4592Z" fill="#2F2F2F"/>
<path fill-rule="evenodd" clip-rule="evenodd" d="M109.973 10.421C108.985 9.99471 107.92 9.77768 106.844 9.78363C105.767 9.78133 104.702 10.0023 103.715 10.4326C101.792 11.25 100.262 12.7837 99.45 14.7091C99.034 15.7019 98.8198 16.7676 98.8198 17.844C98.8198 18.9205 99.034 19.9861 99.45 20.9789C100.262 22.9043 101.792 24.4381 103.715 25.2554C104.705 25.6742 105.769 25.8901 106.844 25.8901C107.919 25.8901 108.983 25.6742 109.973 25.2554C110.93 24.839 111.799 24.2452 112.534 23.5054C113.267 22.7736 113.854 21.9081 114.261 20.9558C114.68 19.9638 114.896 18.8978 114.896 17.8208C114.896 16.7439 114.68 15.6779 114.261 14.6859C113.854 13.7336 113.267 12.8681 112.534 12.1363C111.796 11.4091 110.927 10.8273 109.973 10.421ZM108.536 21.8366C108.003 22.0632 107.429 22.1776 106.85 22.1727L106.856 22.1726H106.844L106.85 22.1727C106.271 22.1776 105.697 22.0632 105.164 21.8366C104.119 21.394 103.288 20.5628 102.846 19.5187C102.622 18.9847 102.506 18.4115 102.506 17.8324C102.506 17.2534 102.622 16.6801 102.846 16.1462C103.288 15.102 104.119 14.2708 105.164 13.8283C105.697 13.6042 106.271 13.4888 106.85 13.4888C107.429 13.4888 108.002 13.6042 108.536 13.8283C109.58 14.2708 110.411 15.102 110.854 16.1462C111.078 16.6801 111.193 17.2534 111.193 17.8324C111.193 18.4115 111.078 18.9847 110.854 19.5187C110.411 20.5628 109.58 21.394 108.536 21.8366Z" fill="#2F2F2F"/>
<path d="M90.283 13.5153H87.374C87.2844 13.5153 87.2118 13.4426 87.2118 13.353V9.94576C87.2118 9.85615 87.2844 9.78351 87.374 9.78351H96.9121C97.0017 9.78351 97.0743 9.85615 97.0743 9.94576V13.353C97.0743 13.4426 97.0017 13.5153 96.9121 13.5153H94.0148V25.7188C94.0148 25.8084 93.9422 25.881 93.8525 25.881H90.4453C90.3557 25.881 90.283 25.8084 90.283 25.7188V13.5153Z" fill="#2F2F2F"/>
<path d="M24.5018 17.0169V25.6973C24.5018 25.7403 24.4847 25.7816 24.4543 25.812C24.4239 25.8425 24.3826 25.8596 24.3396 25.8596H20.9323C20.8893 25.8596 20.848 25.8425 20.8176 25.812C20.7871 25.7816 20.77 25.7403 20.77 25.6973C20.7699 25.6711 20.7634 25.6453 20.7511 25.6221C20.7388 25.5989 20.7211 25.5791 20.6994 25.5643C20.6778 25.5495 20.6528 25.5401 20.6268 25.5371C20.6007 25.534 20.5743 25.5373 20.5498 25.5466C20.2091 25.6552 19.8603 25.7365 19.5068 25.79C19.0813 25.8574 18.6512 25.8922 18.2204 25.8943C17.1769 25.8772 16.1463 25.6608 15.184 25.2569C14.179 24.8564 13.2676 24.2528 12.5068 23.4837C11.7488 22.7364 11.1531 21.8409 10.7568 20.853C10.3739 19.8864 10.1772 18.8562 10.1774 17.8165C10.1777 16.7732 10.3743 15.7392 10.7568 14.7686C11.1503 13.7628 11.7504 12.8507 12.5184 12.0914C13.2792 11.3224 14.1906 10.7187 15.1956 10.3182C17.1503 9.52576 19.3368 9.52576 21.2916 10.3182C22.2417 10.6986 23.1079 11.2616 23.8412 11.9755C23.8566 11.9906 23.8689 12.0087 23.8772 12.0286C23.8856 12.0485 23.8899 12.0698 23.8899 12.0914C23.8899 12.113 23.8856 12.1344 23.8772 12.1543C23.8689 12.1742 23.8566 12.1922 23.8412 12.2073L21.4422 14.6063C21.4271 14.6217 21.4091 14.634 21.3892 14.6423C21.3693 14.6507 21.3479 14.655 21.3263 14.655C21.3047 14.655 21.2834 14.6507 21.2635 14.6423C21.2436 14.634 21.2255 14.6217 21.2104 14.6063C20.8241 14.242 20.3717 13.9549 19.8777 13.7603C18.8215 13.3361 17.6424 13.3361 16.5863 13.7603C16.0425 13.9728 15.5491 14.2965 15.1376 14.7106C14.7308 15.1155 14.408 15.5968 14.1877 16.1268C13.9674 16.6569 13.854 17.2252 13.854 17.7992C13.854 18.3731 13.9674 18.9415 14.1877 19.4715C14.408 20.0015 14.7308 20.4828 15.1376 20.8877C15.5073 21.2624 15.9436 21.565 16.424 21.7801C16.8891 21.9891 17.3873 22.1146 17.8959 22.151C18.4023 22.1892 18.9116 22.1421 19.4025 22.0119C19.8709 21.8892 20.3142 21.6852 20.7121 21.4092C20.7344 21.3937 20.7525 21.3729 20.7646 21.3486C20.7768 21.3243 20.7826 21.2973 20.7816 21.2702V20.7139C20.7816 20.6709 20.7645 20.6296 20.7341 20.5992C20.7037 20.5687 20.6624 20.5516 20.6194 20.5516H17.7104C17.6674 20.5516 17.6261 20.5345 17.5957 20.5041C17.5653 20.4737 17.5482 20.4324 17.5482 20.3894V17.0169C17.5482 16.9739 17.5653 16.9326 17.5957 16.9022C17.6261 16.8717 17.6674 16.8546 17.7104 16.8546H24.328C24.3502 16.853 24.3726 16.8561 24.3936 16.8635C24.4147 16.8709 24.4339 16.8826 24.4503 16.8979C24.4666 16.9131 24.4796 16.9315 24.4884 16.952C24.4973 16.9725 24.5019 16.9946 24.5018 17.0169Z" fill="#2F2F2F"/>
<path fill-rule="evenodd" clip-rule="evenodd" d="M37.1805 25.764L36.6243 24.0951C36.614 24.0605 36.5924 24.0303 36.563 24.0093C36.5337 23.9883 36.4981 23.9777 36.462 23.9792H31.6177C31.5835 23.9802 31.5506 23.992 31.5236 24.0128C31.4965 24.0336 31.4767 24.0624 31.467 24.0951L30.8875 25.8219C30.8778 25.8546 30.858 25.8834 30.8309 25.9042C30.8039 25.925 30.771 25.9368 30.7369 25.9378H27.1673C27.1411 25.9377 27.1153 25.9312 27.0921 25.9189C27.069 25.9066 27.0491 25.8888 27.0343 25.8672C27.0195 25.8455 27.0102 25.8206 27.0071 25.7946C27.004 25.7685 27.0073 25.7421 27.0167 25.7176L32.3826 9.95609C32.3923 9.92338 32.4121 9.89457 32.4391 9.87377C32.4662 9.85296 32.4991 9.84121 32.5332 9.84019H35.8014C35.8375 9.8387 35.8731 9.84928 35.9024 9.87028C35.9318 9.89127 35.9534 9.92147 35.9637 9.95609L41.0514 25.7176C41.0612 25.743 41.0644 25.7705 41.0608 25.7975C41.0571 25.8246 41.0468 25.8502 41.0306 25.8722C41.0144 25.8941 40.993 25.9116 40.9683 25.9231C40.9436 25.9346 40.9163 25.9396 40.8891 25.9378H37.3428C37.3205 25.9379 37.2984 25.9333 37.2779 25.9244C37.2574 25.9156 37.239 25.9026 37.2238 25.8863C37.2085 25.8699 37.1968 25.8507 37.1894 25.8296C37.182 25.8086 37.179 25.7862 37.1805 25.764ZM33.02 20.2243H35.1756C35.2028 20.2261 35.23 20.221 35.2547 20.2095C35.2794 20.1981 35.3009 20.1806 35.3171 20.1586C35.3332 20.1367 35.3436 20.111 35.3472 20.084C35.3509 20.057 35.3476 20.0295 35.3378 20.0041L34.2948 16.7822C34.2854 16.7479 34.265 16.7177 34.2367 16.6962C34.2084 16.6746 34.1739 16.6629 34.1383 16.6629C34.1028 16.6629 34.0682 16.6746 34.04 16.6962C34.0117 16.7177 33.9913 16.7479 33.9819 16.7822L32.823 20.0041C32.8104 20.0326 32.8063 20.0641 32.8112 20.0949C32.8161 20.1257 32.8298 20.1544 32.8505 20.1776C32.8713 20.2008 32.8983 20.2176 32.9284 20.2259C32.9584 20.2341 32.9902 20.2336 33.02 20.2243Z" fill="#2F2F2F"/>
<path d="M58.8179 9.76163H55.2715C55.2359 9.76336 55.2018 9.77679 55.1746 9.79983C55.1473 9.82288 55.1285 9.85426 55.1209 9.88912L51.8758 19.4156C51.8664 19.4498 51.846 19.4801 51.8177 19.5016C51.7895 19.5232 51.7549 19.5348 51.7194 19.5348C51.6838 19.5348 51.6493 19.5232 51.621 19.5016C51.5927 19.4801 51.5723 19.4498 51.5629 19.4156L48.2252 9.88912C48.2155 9.85641 48.1957 9.82761 48.1686 9.8068C48.1416 9.78599 48.1086 9.77424 48.0745 9.77322H44.5282C44.4871 9.77312 44.4475 9.78861 44.4174 9.81658C44.3873 9.84454 44.3689 9.88289 44.3659 9.92389L43.3461 25.6506C43.3445 25.6729 43.3475 25.6952 43.3549 25.7163C43.3624 25.7373 43.3741 25.7566 43.3893 25.7729C43.4045 25.7892 43.423 25.8022 43.4434 25.8111C43.4639 25.82 43.486 25.8245 43.5083 25.8245H46.9156C46.9567 25.8246 46.9963 25.8091 47.0264 25.7811C47.0565 25.7532 47.0749 25.7148 47.0778 25.6738L47.4487 19.8096C47.4487 19.7666 47.4658 19.7253 47.4962 19.6949C47.5267 19.6644 47.5679 19.6474 47.611 19.6474C47.654 19.6474 47.6953 19.6644 47.7257 19.6949C47.7561 19.7253 47.7732 19.7666 47.7732 19.8096L49.8593 25.7665C49.869 25.7992 49.8888 25.828 49.9159 25.8488C49.9429 25.8697 49.9758 25.8814 50.0099 25.8824H53.4868C53.5209 25.8814 53.5538 25.8697 53.5808 25.8488C53.6079 25.828 53.6277 25.7992 53.6374 25.7665L55.5381 20.1341C55.5381 20.0911 55.5552 20.0498 55.5856 20.0194C55.616 19.9889 55.6573 19.9719 55.7003 19.9719C55.7434 19.9719 55.7846 19.9889 55.8151 20.0194C55.8455 20.0498 55.8626 20.0911 55.8626 20.1341L56.1987 25.7202C56.2016 25.7612 56.22 25.7995 56.2501 25.8275C56.2802 25.8554 56.3198 25.8709 56.3609 25.8708H59.745C59.7673 25.8709 59.7894 25.8663 59.8099 25.8575C59.8304 25.8486 59.8488 25.8356 59.864 25.8193C59.8793 25.803 59.891 25.7837 59.8984 25.7626C59.9058 25.7416 59.9089 25.7193 59.9073 25.697L58.9801 9.9123C58.9772 9.8713 58.9588 9.83295 58.9287 9.80499C58.8986 9.77702 58.859 9.76153 58.8179 9.76163Z" fill="#2F2F2F"/>
</svg>
