<svg width="105" height="36" viewBox="0 0 105 36" fill="none" xmlns="http://www.w3.org/2000/svg">
<path d="M26.5514 26.845L26.5365 26.86C26.3574 27.0398 26.1733 27.2097 25.9843 27.3746L25.8027 27.532C25.656 27.6569 25.5067 27.7818 25.3575 27.8943L25.1883 28.0242C24.9918 28.1741 24.7903 28.314 24.5839 28.4489L24.4197 28.5513C24.258 28.6537 24.0938 28.7537 23.9222 28.8486L23.7207 28.961C23.5217 29.0684 23.3202 29.1734 23.1163 29.2708L23.0591 29.2983C22.8327 29.4057 22.6014 29.5006 22.37 29.5931L22.1984 29.658C22.0069 29.7305 21.8129 29.7979 21.6188 29.8604C21.5716 29.8754 21.5243 29.8929 21.4746 29.9054C21.2324 29.9803 20.9887 30.0478 20.7433 30.1077C20.7223 30.1115 20.7015 30.1165 20.6811 30.1227C20.4572 30.1752 20.2333 30.2201 20.007 30.2576L19.8453 30.2851C19.614 30.3226 19.3826 30.355 19.1513 30.38H19.104C18.8553 30.405 18.6065 30.42 18.3578 30.43H17.4076C17.1588 30.43 16.9325 30.4075 16.6962 30.385L16.5221 30.3625C16.2417 30.3346 15.9628 30.2938 15.6863 30.2401L15.2982 30.1627C15.0744 30.1152 14.853 30.0602 14.6316 30.0003L14.3829 29.9328L14.2535 29.8904L17.5543 26.5927C19.0835 26.6523 20.6001 26.2927 21.9412 25.5523C23.2823 24.8119 24.3973 23.7187 25.1667 22.3901C25.936 21.0614 26.3307 19.5474 26.3082 18.0106C26.2857 16.4737 25.847 14.9721 25.0391 13.6667L22.962 15.7527V20.8392H19.4796V13.8216L25.0863 8.1705C25.6057 8.54874 26.0955 8.96634 26.5514 9.41963C28.8463 11.732 30.1349 14.8637 30.1349 18.1286C30.1349 21.3934 28.8463 24.5251 26.5514 26.8375M9.11942 26.8825C6.82411 24.5708 5.53515 21.4394 5.53515 18.1748C5.53515 14.9101 6.82411 11.7787 9.11942 9.4671L9.13684 9.44961C9.31593 9.27223 9.5 9.09985 9.68656 8.93497L9.87063 8.77758C10.0149 8.65266 10.1641 8.52775 10.3134 8.41533L10.4825 8.28542C10.6815 8.13802 10.883 7.99562 11.087 7.86072L11.2512 7.75829C11.4128 7.65586 11.577 7.55593 11.7487 7.46099L11.9501 7.34857C12.1491 7.24115 12.3506 7.13622 12.5546 7.03879L12.6118 7.01131C12.8406 6.90388 13.0695 6.80895 13.3008 6.71651L13.4725 6.65156C13.6639 6.57927 13.8572 6.5118 14.052 6.4492L14.1963 6.40423C14.4367 6.32928 14.6805 6.26183 14.9276 6.20187H14.9898C15.2132 6.14984 15.438 6.10402 15.6639 6.06447L15.8256 6.03699C16.0569 5.99951 16.2882 5.96704 16.5196 5.94205H16.5668C16.8156 5.91707 17.0643 5.90208 17.3131 5.89209H18.2633C18.512 5.89209 18.7384 5.91457 18.9747 5.93706L19.1488 5.95954C19.3254 5.97953 19.4995 6.00201 19.6761 6.02949L19.9846 6.08196C20.1139 6.10444 20.2333 6.13192 20.3726 6.1594C20.5965 6.20687 20.8179 6.26183 21.0393 6.32179L21.288 6.38924L21.4198 6.43171L18.119 9.71942C16.5887 9.65825 15.0708 10.0172 13.7284 10.7576C12.3861 11.498 11.27 12.5919 10.5003 13.9217C9.73063 15.2514 9.33639 16.7668 9.35999 18.3047C9.38359 19.8427 9.82414 21.3451 10.6343 22.6504L12.7088 20.5644V15.4779H16.1912V22.4955L10.5845 28.1466C10.0652 27.7683 9.57536 27.3507 9.11942 26.8974M17.8354 2.97412C14.8452 2.97412 11.9222 3.86467 9.43594 5.53316C6.94968 7.20164 5.01188 9.57312 3.86758 12.3477C2.72329 15.1223 2.42389 18.1754 3.00724 21.1209C3.5906 24.0664 5.03052 26.772 7.1449 28.8955C9.25929 31.0191 11.9532 32.4653 14.8859 33.0512C17.8187 33.6371 20.8585 33.3364 23.6211 32.1871C26.3837 31.0378 28.7449 29.0916 30.4062 26.5946C32.0674 24.0975 32.9541 21.1617 32.9541 18.1585C32.9541 14.1314 31.3613 10.2692 28.526 7.42153C25.6906 4.5739 21.8452 2.97412 17.8354 2.97412Z" fill="#A3A3A0"/>
<path d="M53.1695 17.7894C53.1571 20.9822 51.1348 22.8584 48.1374 22.8584C44.655 22.8584 42.4909 20.3601 42.4909 17.5921C42.4909 14.7515 44.6948 12.3132 47.9832 12.3132C49.8239 12.3132 51.2318 12.9853 52.57 14.2594L51.8039 14.9889C50.6746 13.8821 49.3165 13.2925 48.013 13.2925C45.6127 13.2925 43.5356 15.1413 43.5356 17.5646C43.5356 19.8755 45.4734 21.934 48.1648 21.934C50.0627 21.934 51.7616 20.7998 52.0402 18.7687H48.8488V17.7894H53.1695ZM55.5574 18.9086C55.5455 19.6974 55.8453 20.4588 56.3913 21.0259C56.9373 21.593 57.6849 21.9196 58.4702 21.934C59.0657 21.9509 59.6527 21.7892 60.1563 21.4695C60.6599 21.1498 61.0572 20.6866 61.2975 20.1391C61.5378 19.5916 61.6102 18.9846 61.5055 18.3956C61.4007 17.8066 61.1236 17.2623 60.7095 16.8322C60.2954 16.4021 59.7631 16.1056 59.1804 15.9807C58.5978 15.8558 57.9914 15.9081 57.4385 16.131C56.8856 16.3538 56.4114 16.737 56.0763 17.2318C55.7413 17.7265 55.5607 18.3103 55.5574 18.9086ZM61.3557 15.1837H62.291V22.621H61.3557V21.3444C61.003 21.8012 60.5502 22.1702 60.0326 22.4228C59.5149 22.6753 58.9463 22.8047 58.3707 22.8009C57.3562 22.7718 56.3932 22.3457 55.6872 21.6134C54.9811 20.8812 54.5879 19.9008 54.5915 18.8815C54.5951 17.8622 54.9951 16.8846 55.7063 16.1574C56.4174 15.4301 57.3834 15.0108 58.3981 14.9889C58.9805 14.9804 59.5558 15.1182 60.0718 15.3895C60.5878 15.6608 61.0283 16.0573 61.3532 16.5428L61.3557 15.1837ZM70.4199 22.6185H69.4722V18.8112C69.4722 18.2366 69.4175 17.7619 69.4026 17.4247C69.3769 17.0025 69.1869 16.6074 68.8738 16.3246C68.5606 16.0418 68.1492 15.8941 67.7285 15.9132C67.3918 15.9157 67.0602 15.9951 66.7585 16.1453C66.4569 16.2955 66.1931 16.5125 65.9873 16.7801C65.46 17.4671 65.3605 18.349 65.3605 19.4682V22.6185H64.4127V15.1837H65.3605V16.4653C66.0171 15.5135 66.838 14.9964 67.8977 14.9964C69.027 14.9964 69.8354 15.5835 70.2408 16.7876C70.8975 15.5984 71.8726 14.9964 72.9596 14.9964C74.4919 14.9964 75.4819 16.1031 75.4819 18.2166V22.6185H74.5342V18.5589C74.5342 18.0118 74.4645 17.5796 74.4521 17.3097C74.4098 16.6502 73.7829 15.9232 72.778 15.9232C72.3152 15.9276 71.8649 16.075 71.4884 16.3455C71.1119 16.6159 70.8274 16.9962 70.6736 17.4347C70.4628 18.0605 70.3724 18.721 70.4075 19.3808L70.4199 22.6185ZM84.3372 18.8812C84.3445 18.0912 84.0411 17.3302 83.4929 16.7637C82.9446 16.1972 82.1959 15.8709 81.4094 15.8558C81.0177 15.8495 80.6288 15.9231 80.2661 16.0721C79.9035 16.2211 79.5747 16.4424 79.2997 16.7226C79.0246 17.0028 78.809 17.3361 78.6659 17.7024C78.5227 18.0687 78.455 18.4604 78.4668 18.8537C78.4632 19.6355 78.7689 20.3868 79.3168 20.9422C79.8647 21.4976 80.6098 21.8117 81.3883 21.8154C82.1668 21.819 82.9148 21.5119 83.4678 20.9616C84.0208 20.4114 84.3335 19.663 84.3372 18.8812ZM78.5365 22.6285H77.5887V12.3132H78.5365V16.4653C78.8856 16.0075 79.3352 15.6367 79.8504 15.3819C80.3655 15.1271 80.9322 14.9952 81.5065 14.9964C82.5229 15.0255 83.4878 15.4524 84.1953 16.1861C84.9027 16.9197 85.2967 17.902 85.2931 18.9233C85.2895 19.9446 84.8887 20.924 84.1761 21.6527C83.4636 22.3813 82.4958 22.8014 81.4791 22.8234C80.8976 22.8272 80.3243 22.6858 79.8106 22.412C79.297 22.1381 78.8591 21.7404 78.5365 21.2545V22.6285ZM87.6703 18.9086C87.6584 19.6974 87.9582 20.4588 88.5042 21.0259C89.0502 21.593 89.7978 21.9196 90.5831 21.934C91.1786 21.9509 91.7656 21.7892 92.2692 21.4695C92.7728 21.1498 93.1701 20.6866 93.4104 20.1391C93.6507 19.5916 93.7231 18.9846 93.6184 18.3956C93.5136 17.8066 93.2365 17.2623 92.8224 16.8322C92.4083 16.4021 91.876 16.1056 91.2933 15.9807C90.7107 15.8558 90.1043 15.9081 89.5514 16.131C88.9985 16.3538 88.5243 16.737 88.1892 17.2318C87.8542 17.7265 87.6735 18.3103 87.6703 18.9086ZM93.4711 15.1837H94.4039V22.621H93.4711V21.3444C93.1181 21.8009 92.6653 22.1697 92.1477 22.4222C91.6301 22.6748 91.0616 22.8044 90.4861 22.8009C89.4715 22.7707 88.5088 22.3434 87.8035 21.6103C87.0982 20.8771 86.7062 19.8961 86.711 18.8766C86.7159 17.8572 87.1173 16.88 87.8296 16.1536C88.5419 15.4273 89.5086 15.0093 90.5234 14.9889C91.1062 14.9803 91.6819 15.1179 92.1984 15.3892C92.7148 15.6606 93.1557 16.0571 93.481 16.5428L93.4711 15.1837ZM97.5007 16.5153C98.2669 15.516 99.1872 14.9889 100.277 14.9889C101.894 14.9889 103.013 16.1081 103.013 18.4465V22.6185H102.065V18.5739C102.065 16.8251 101.52 15.8558 100.075 15.8558C99.6937 15.8524 99.3171 15.9415 98.9772 16.1155C98.6373 16.2894 98.3441 16.5431 98.1226 16.8551C97.5654 17.5821 97.4808 18.3116 97.4808 19.4882V22.6185H96.5331V15.1837H97.4808L97.5007 16.5153Z" fill="#A3A3A0"/>
</svg>
