<svg width="105" height="36" viewBox="0 0 105 36" fill="none" xmlns="http://www.w3.org/2000/svg">
<path d="M36.6162 30.7482L36.5496 26.1182L36.3665 21.7536L36.0501 22.6332L35.6671 23.6455L34.335 27.2964L33.0695 30.7482H31.1047L29.5062 26.0518L28.0908 21.7536L27.6745 26.1348L27.3915 30.7482H25.3933C25.6764 28.7734 25.8929 26.8649 26.0594 24.9399L26.409 19.1648H29.0732L30.039 22.1519L31.7374 26.9479L32.2703 28.5577L34.0187 23.9442L35.7171 19.1648H38.2647C38.2647 20.8243 38.3313 22.7659 38.4479 24.774L38.8975 30.7482H36.6162Z" fill="#A3A3A0"/>
<path d="M4.24633 20.9561C3.08075 22.0514 2.36475 23.6279 2.36475 25.5861C2.36475 27.2457 3.03079 28.6562 4.09647 29.6685C5.19545 30.6643 6.71072 31.2285 8.44244 31.2285C9.22505 31.2285 9.90775 31.1621 10.5238 31.0293C11.1399 30.8966 11.7061 30.6808 12.2722 30.3655L11.6395 28.8886C11.2065 29.1707 10.7736 29.3532 10.3074 29.486C9.84115 29.6188 9.34161 29.6685 8.79212 29.6685C7.60988 29.6685 6.56085 29.2205 5.81155 28.4571C5.06224 27.6937 4.61266 26.5818 4.61266 25.2542C4.61266 23.8602 5.06224 22.7484 5.7949 21.985C6.52755 21.2216 7.57658 20.8067 8.79212 20.8067C9.50812 20.8067 10.1242 20.9395 10.5905 21.122C11.0567 21.3046 11.3897 21.5369 11.5396 21.7527L12.2389 19.8774C11.7727 19.6617 11.2898 19.5123 10.7403 19.4127C10.1908 19.3132 9.55807 19.28 8.80877 19.28C7.02709 19.28 5.41192 19.8774 4.24633 20.9561Z" fill="#A3A3A0"/>
<path fill-rule="evenodd" clip-rule="evenodd" d="M22.8957 20.8731C21.8133 19.8608 20.2814 19.28 18.4498 19.28C16.7014 19.28 15.1695 19.8774 14.0372 20.9561C12.9382 22.0348 12.2722 23.5781 12.2722 25.4368C12.2722 27.1793 12.9049 28.6231 13.9873 29.6354C15.0696 30.6477 16.6182 31.2119 18.4498 31.2119C20.1649 31.2119 21.6968 30.6145 22.8124 29.5524C23.9114 28.4737 24.5941 26.9469 24.5941 25.0883C24.5941 23.3458 23.978 21.8854 22.8957 20.8731ZM21.2305 28.4737C20.5478 29.2537 19.5987 29.7017 18.4498 29.7017C17.2842 29.7017 16.3351 29.2537 15.6524 28.4737C14.9863 27.6771 14.62 26.5653 14.62 25.2376C14.62 23.9266 14.9697 22.8147 15.6357 22.0348C16.3018 21.2548 17.2509 20.8067 18.4498 20.8067C19.5821 20.8067 20.5312 21.2382 21.2139 22.0182C21.8799 22.7816 22.2796 23.8934 22.2796 25.2376C22.2796 26.5818 21.8966 27.6937 21.2305 28.4737Z" fill="#A3A3A0"/>
<path d="M50.7366 26.1182L50.8032 30.7482H53.0677L52.6181 24.774C52.5016 22.7659 52.435 20.8243 52.435 19.1648H49.8873L48.2056 23.9442L46.4738 28.5577L45.9244 26.9479L45.2916 25.2054L44.2259 22.1519L43.2768 19.1648H40.5793L40.2296 24.9399C40.0798 26.8649 39.8633 28.7734 39.5802 30.7482H41.5451L41.8282 26.1348L42.2611 21.7536L43.6764 26.0518L45.2583 30.7482H47.2564L48.5219 27.2964L49.8374 23.6455L50.5534 21.7536L50.7366 26.1182Z" fill="#A3A3A0"/>
<path d="M54.1667 30.7482L54.2666 27.9768L54.2832 25.1556L54.2666 22.1353L54.1667 19.1648H56.4146L56.3147 22.1353L56.298 25.1556L56.3147 27.9768L56.4146 30.7482H54.1667Z" fill="#A3A3A0"/>
<path d="M63.7745 21.0068C64.2074 21.1728 64.5404 21.3885 64.7902 21.6042L65.4895 19.8286C65.1399 19.6294 64.7069 19.4801 64.1741 19.3805C63.6412 19.2809 63.0251 19.2145 62.3091 19.2145C61.0103 19.2145 59.9447 19.563 59.1954 20.1439C58.4461 20.7081 58.0298 21.5213 58.0298 22.4506C58.0298 23.1974 58.2296 23.7782 58.6292 24.2761C59.0289 24.7739 59.6283 25.1888 60.4276 25.5539L61.0936 25.8526L61.7596 26.1679C62.3591 26.4334 62.792 26.699 63.0917 26.9977C63.3748 27.2964 63.5247 27.6449 63.5247 28.0598C63.5247 28.5078 63.3748 28.9227 63.0418 29.2214C62.6921 29.5201 62.1593 29.7027 61.3767 29.7027C60.8272 29.7027 60.261 29.6031 59.7282 29.4372C59.1954 29.2712 58.6792 29.0223 58.2462 28.7402L57.5968 30.4329C58.163 30.6984 58.7624 30.8809 59.3952 30.9971C60.0279 31.1299 60.7106 31.1796 61.4266 31.1796C62.6422 31.1796 63.7078 30.8809 64.4738 30.3167C65.2231 29.7525 65.6893 28.9061 65.6893 27.7776C65.6893 26.9811 65.5062 26.3505 65.0899 25.836C64.6903 25.3216 64.0575 24.8901 63.1584 24.4918L61.9928 23.9939C61.2435 23.662 60.7772 23.3799 60.5108 23.0978C60.2444 22.8157 60.1611 22.517 60.1611 22.1685C60.1611 21.7536 60.3443 21.3885 60.694 21.1396C61.0436 20.8906 61.5598 20.7413 62.2758 20.7413C62.8586 20.7413 63.3582 20.8409 63.7745 21.0068Z" fill="#A3A3A0"/>
<path d="M73.4488 21.6042C73.1824 21.3885 72.8494 21.1728 72.4331 21.0068C72.0168 20.8409 71.5173 20.7413 70.9511 20.7413C70.2351 20.7413 69.7023 20.8906 69.3526 21.1396C69.003 21.3885 68.8198 21.7536 68.8198 22.1685C68.8198 22.517 68.903 22.8157 69.1861 23.0978C69.4525 23.3799 69.9188 23.662 70.6847 23.9939L71.8503 24.4918C72.7495 24.8901 73.3822 25.3216 73.7819 25.836C74.1981 26.3505 74.3813 26.9811 74.3813 27.7776C74.3813 28.9061 73.9151 29.7525 73.1658 30.3167C72.3998 30.8809 71.3341 31.1796 70.1186 31.1796C69.3859 31.1796 68.7032 31.1299 68.0705 30.9971C67.4377 30.8809 66.8383 30.6984 66.2888 30.4329L66.9382 28.7402C67.3711 29.0223 67.8707 29.2712 68.4035 29.4372C68.9363 29.6031 69.5025 29.7027 70.0686 29.7027C70.8512 29.7027 71.3841 29.5201 71.7338 29.2214C72.0668 28.9227 72.2166 28.5078 72.2166 28.0598C72.2166 27.6449 72.0668 27.2964 71.7837 26.9977C71.484 26.699 71.0511 26.4334 70.4516 26.1679L69.7856 25.8526L69.1195 25.5539C68.3203 25.1888 67.7208 24.7739 67.3212 24.2761C66.9216 23.7782 66.7217 23.1974 66.7217 22.4506C66.7217 21.5213 67.138 20.7081 67.8873 20.1439C68.6366 19.563 69.7023 19.2145 71.0011 19.2145C71.7171 19.2145 72.3332 19.2809 72.866 19.3805C73.3989 19.4801 73.8318 19.6294 74.1815 19.8286L73.4488 21.6042Z" fill="#A3A3A0"/>
<path d="M75.6301 27.9768L75.5302 30.7482H77.7781L77.6782 27.9768L77.6615 25.1556L77.6782 22.1353L77.7781 19.1648H75.5302L75.6301 22.1353L75.6467 25.1556L75.6301 27.9768Z" fill="#A3A3A0"/>
<path fill-rule="evenodd" clip-rule="evenodd" d="M85.2378 19.28C87.0861 19.28 88.618 19.8608 89.7003 20.8731C90.7826 21.8854 91.3987 23.3458 91.3987 25.0883C91.3987 26.9469 90.7327 28.4737 89.617 29.5524C88.5014 30.6145 86.9695 31.2119 85.2211 31.2119C83.3895 31.2119 81.8576 30.6477 80.7752 29.6354C79.6929 28.6231 79.0768 27.1793 79.0768 25.4368C79.0768 23.5781 79.7429 22.0348 80.8419 20.9561C81.9408 19.8774 83.4727 19.28 85.2378 19.28ZM85.2378 29.7017C86.4034 29.7017 87.3525 29.2537 88.0352 28.4737C88.7012 27.6937 89.0842 26.5818 89.0842 25.2376C89.0842 23.8934 88.6846 22.7816 88.0185 22.0182C87.3358 21.2382 86.3701 20.8067 85.2378 20.8067C84.0555 20.8067 83.0898 21.2548 82.4404 22.0348C81.7743 22.8147 81.408 23.9266 81.408 25.2376C81.408 26.5653 81.791 27.6771 82.457 28.4737C83.1231 29.2537 84.0888 29.7017 85.2378 29.7017Z" fill="#A3A3A0"/>
<path d="M102.222 22.1353L102.272 19.1648H100.307L100.407 23.0979L100.424 27.479L97.8428 23.6787L94.5958 19.1648H92.2979L92.3812 21.7039L92.4145 25.1556L92.3645 28.1262L92.2979 30.4163V30.7482H94.2794L94.1629 26.5828V21.7536L97.0435 25.8858L100.324 30.7482H102.272L102.222 27.9768L102.205 25.1556L102.222 22.1353Z" fill="#A3A3A0"/>
<path d="M10.9068 16.2935C11.5729 16.194 12.2056 16.0446 12.8051 15.8289V15.7625L12.7718 14.1859V11.4643L12.8051 10.3857H10.5571C10.5904 10.6678 10.6071 10.9499 10.6237 11.2652L10.6404 12.3107L10.6237 13.5055C10.6071 13.9536 10.5904 14.4017 10.5571 14.717C10.3407 14.8 10.0909 14.8663 9.79119 14.8995C9.50812 14.9327 9.17509 14.9493 8.77547 14.9493C7.69314 14.9493 6.64411 14.5344 5.87815 13.7545C5.1122 12.9745 4.61266 11.846 4.61266 10.4354C4.61266 9.10783 4.99564 8.01255 5.74494 7.24917C6.49425 6.48579 7.57658 6.05432 8.97528 6.05432C9.87445 6.05432 10.5904 6.22027 11.1066 6.40282C11.6395 6.60196 11.9892 6.83429 12.1557 6.96705L12.8051 5.19137C12.3055 4.95904 11.756 4.77649 11.1399 4.66033C10.5238 4.52756 9.84114 4.46118 9.09184 4.46118C7.07704 4.46118 5.39527 5.10839 4.21303 6.22027C3.03079 7.33214 2.36475 8.92528 2.36475 10.8171C2.36475 12.5098 3.0974 13.9204 4.24633 14.8995C5.41192 15.8952 6.99379 16.4429 8.69221 16.4429C9.50812 16.4429 10.2408 16.3931 10.9068 16.2935Z" fill="#757573"/>
<path fill-rule="evenodd" clip-rule="evenodd" d="M22.8125 10.2188L20.6146 4.47689H18.5998L15.9356 10.5673L13.3547 16.1765H15.4694C15.5121 16.0061 15.5914 15.8235 15.676 15.6288L15.7191 15.5293L16.0022 14.8489L16.4185 13.9195L16.8181 12.9404H21.597L21.9633 13.9195L22.363 14.8821L22.6127 15.5459L22.8625 16.1765H25.3269L22.8125 10.2188ZM21.1308 11.3805H17.4342L17.8172 10.4677L18.2002 9.5716L18.8329 8.02825L19.3824 6.61766L20.1817 8.92439L21.1308 11.3805Z" fill="#757573"/>
<path d="M37.0325 16.0612L36.9659 11.4311L36.7827 7.05003L36.0667 8.97507L34.7679 12.6094L33.5025 16.0778H31.5376L29.9391 11.3814L28.5237 7.06662L28.0908 11.4643L27.8244 16.0778H25.8262C26.1093 14.103 26.3258 12.1945 26.4923 10.2695L26.842 4.47778H29.5062L30.4719 7.44831L31.5543 10.4852L32.1537 12.2277L32.7032 13.854L34.4349 9.22399L36.1 4.46118H38.681C38.681 6.1207 38.7476 8.06233 38.8641 10.0703L39.3137 16.0446L37.0325 16.0612Z" fill="#757573"/>
<path fill-rule="evenodd" clip-rule="evenodd" d="M48.4386 10.8167C47.989 10.3354 47.323 9.9869 46.5071 9.82095C47.1232 9.655 47.656 9.3065 48.039 8.85843C48.422 8.41036 48.6551 7.86272 48.6551 7.31508C48.6551 6.43554 48.2388 5.72195 47.4729 5.24069C46.7069 4.75943 45.5746 4.4939 44.1593 4.4939H40.5793L40.6792 7.44784L40.6958 10.435L40.6792 13.2561L40.5793 16.0607H44.1926C45.8577 16.0607 47.0899 15.7454 47.9224 15.1646C48.7384 14.5838 49.1546 13.7208 49.1546 12.5923C49.1546 11.8953 48.8882 11.2979 48.4386 10.8167ZM46.3572 14.0527C45.8743 14.3846 45.1084 14.5506 43.9428 14.5506L42.7606 14.5672L42.7273 12.7085V10.8333H43.8928C44.9585 10.8333 45.7411 10.9826 46.2573 11.2979C46.7735 11.5966 47.0233 12.0613 47.0233 12.6753C47.0233 13.2561 46.8401 13.7374 46.3572 14.0527ZM42.7439 7.5806L42.7772 6.00406C42.9271 5.97087 43.1269 5.95428 43.3267 5.93768L43.8928 5.92109C44.842 5.92109 45.508 6.07044 45.9409 6.35256C46.3739 6.63468 46.557 7.04956 46.557 7.5806C46.557 8.14484 46.3406 8.57631 45.891 8.85843C45.4414 9.15714 44.7587 9.3065 43.8262 9.3065H42.7439V7.5806Z" fill="#757573"/>
<path d="M52.3184 13.123L52.3517 14.5004L55.1657 14.4838L57.5635 14.434L56.9641 16.0603H50.1371L50.2536 13.2557V7.43082L50.1371 4.47689H52.4016L52.3683 5.58876L52.3517 6.56788L52.3017 8.37675L52.2851 10.4345L52.3017 11.8451L52.3184 13.123Z" fill="#757573"/>
<path d="M58.9289 13.2557L58.829 16.0603H61.0769V15.2969L61.0603 14.5833L61.0103 12.6085L60.9937 10.4345L61.0103 8.11123L61.0603 6.03683L61.0769 5.29005V4.47689H58.829L58.9289 7.43082L58.9456 10.4345L58.9289 13.2557Z" fill="#757573"/>
<path d="M72.2 4.47689L72.1334 7.43082V13.2557L72.2 16.0603H70.1852L66.9549 11.1979L64.0743 7.04914L64.0909 11.8783L64.1908 16.0603H62.1594L62.2593 13.2557L62.2759 10.4345L62.2593 7.43082L62.1594 4.47689H64.4905L67.7375 8.95758L70.3185 12.7579L70.3018 8.36015L70.2019 4.47689H72.2Z" fill="#757573"/>
<path d="M81.9742 16.2935C82.6402 16.194 83.273 16.0446 83.8724 15.8289L83.9057 15.7625L83.8724 14.1859V11.4643C83.8724 11.0827 83.8891 10.7176 83.9057 10.3857H81.6412C81.6745 10.6678 81.6911 10.9499 81.7078 11.2652L81.7244 12.3107L81.7078 13.5055C81.6911 13.9536 81.6745 14.4017 81.6412 14.717C81.4247 14.8 81.1749 14.8663 80.8919 14.8995C80.5921 14.9327 80.2758 14.9493 79.8761 14.9493C78.7772 14.9493 77.7281 14.5344 76.9622 13.7545C76.1962 12.9745 75.6967 11.846 75.6967 10.4354C75.6967 9.10783 76.0797 8.01255 76.829 7.24917C77.5783 6.48579 78.6939 6.05432 80.1259 6.05432C80.7753 6.05432 81.4414 6.15389 81.9908 6.31984C82.5403 6.48579 82.9899 6.70153 83.2397 6.95046L83.8891 5.19137C83.3896 4.95904 82.8234 4.77649 82.2073 4.66033C81.5912 4.52756 80.9252 4.46118 80.1759 4.46118C78.1444 4.46118 76.4626 5.10839 75.2804 6.22027C74.0982 7.33214 73.4155 8.92528 73.4155 10.8171C73.4155 12.5098 74.1481 13.9204 75.3137 14.8995C76.4793 15.8952 78.0778 16.4429 79.7762 16.4429C80.5755 16.4429 81.2915 16.3931 81.9742 16.2935Z" fill="#757573"/>
</svg>
