<svg width="98" height="36" viewBox="0 0 98 36" fill="none" xmlns="http://www.w3.org/2000/svg">
<path d="M16.9839 24.3325C20.4869 24.3325 23.3267 21.4107 23.3267 17.8066C23.3267 14.2025 20.4869 11.2808 16.9839 11.2808C13.4809 11.2808 10.6411 14.2025 10.6411 17.8066C10.6411 21.4107 13.4809 24.3325 16.9839 24.3325Z" fill="#757573"/>
<path d="M16.984 9.54864L19.8627 6.57452V3.0105H14.1052V6.57452L16.984 9.54864Z" fill="#757573"/>
<path d="M12.9706 10.6553L14.0218 6.5997L12.2898 3.50269L7.29675 6.4768L9.02878 9.56153L12.9706 10.6553Z" fill="#A3A3A0"/>
<path d="M10.0201 13.6782L8.96897 9.62259L5.95882 7.84058L3.08008 12.9777L6.09022 14.7597L10.0201 13.6782Z" fill="#757573"/>
<path d="M8.94508 17.8078L6.06633 14.8459H2.59033V20.7696H6.06633L8.94508 17.8078Z" fill="#A3A3A0"/>
<path d="M10.0201 21.9367L6.09022 20.8552L3.08008 22.6372L5.95882 27.7743L8.96897 25.9923L10.0201 21.9367Z" fill="#757573"/>
<path d="M12.9585 24.9722L9.02864 26.0537L7.28467 29.1507L12.2777 32.1125L14.0217 29.0155L12.9585 24.9722Z" fill="#A3A3A0"/>
<path d="M16.9841 26.0786L14.0934 29.0404V32.6168H19.8628V29.0404L16.9841 26.0786Z" fill="#757573"/>
<path d="M20.9975 24.9722L19.9463 29.0155L21.6783 32.1125L26.6713 29.1507L24.9393 26.0537L20.9975 24.9722Z" fill="#A3A3A0"/>
<path d="M23.936 21.949L24.9872 25.9923L27.9973 27.7866L30.888 22.6495L27.8779 20.8552L23.936 21.949Z" fill="#757573"/>
<path d="M25.0111 17.8078L27.9018 20.7819H31.3659V14.8459H27.9018L25.0111 17.8078Z" fill="#A3A3A0"/>
<path d="M23.936 13.6782L27.8779 14.7597L30.888 12.9777L27.9973 7.84058L24.9991 9.62259L23.936 13.6782Z" fill="#757573"/>
<path d="M20.9975 10.6553L24.9393 9.57382L26.6713 6.4768L21.6783 3.50269L19.9463 6.5997L20.9975 10.6553Z" fill="#A3A3A0"/>
<path d="M41.34 6.53784C43.8604 6.53784 45.1265 7.81598 45.1265 7.81598L43.9082 10.1264C43.9082 10.1264 43.0242 9.21701 41.5669 9.21701C39.7393 9.21701 39.0107 10.36 39.0107 11.6627C39.0107 13.1866 39.9902 14.2804 41.4714 14.2804C42.3792 14.2804 43.0959 13.7888 43.1795 13.6659V13.2235H41.9372V11.0605H45.6043V16.7137H43.2631V16.2836C43.2631 16.1238 43.2751 15.9887 43.287 15.9641H43.2273C43.1078 16.1361 42.3314 16.8858 40.7666 16.8858C38.1268 16.8858 35.9647 14.858 35.9647 11.7364C36.0006 8.79915 38.1029 6.53784 41.34 6.53784Z" fill="#A3A3A0"/>
<path d="M57.6449 6.90674H61.7898C63.8802 6.90674 65.3136 8.07426 65.3136 10.1267C65.3136 11.2573 64.7522 12.3142 63.8563 12.8673V12.8918C63.8802 12.941 64.0713 13.1991 64.2744 13.5678L65.9467 16.714H62.8171L61.3359 13.6415H60.5356V16.714H57.6449V6.90674ZM61.3837 11.3556C62.0287 11.3556 62.399 10.9624 62.399 10.311C62.399 9.69651 62.1482 9.29095 61.2762 9.29095H60.5236V11.3433H61.3837V11.3556Z" fill="#A3A3A0"/>
<path d="M66.6515 6.90674H70.5217C73.4721 6.90674 75.3475 8.70104 75.3475 11.7858C75.3475 14.8705 73.4721 16.714 70.5217 16.714H66.6515V6.90674ZM70.3425 14.3052C71.6326 14.3052 72.397 13.4572 72.397 11.7981C72.397 10.1512 71.5967 9.32782 70.3425 9.32782H69.5422V14.3052H70.3425Z" fill="#A3A3A0"/>
<path d="M87.3521 6.90674H90.0994L92.4526 10.9255C92.8468 11.6014 93.1334 12.4248 93.1334 12.4248H93.1812C93.1812 12.4248 93.0737 11.5523 93.0737 10.9255V6.90674H95.8569V16.714H93.0618L90.6967 12.4986C90.3502 11.9087 90.0158 11.0115 90.0158 11.0115H89.968C89.968 11.0115 90.0755 11.8718 90.0755 12.4986V16.714H87.3521V6.90674Z" fill="#A3A3A0"/>
<path d="M36.7173 18.9746H39.8588L41.0533 22.9319C41.2445 23.5587 41.4475 24.505 41.4475 24.505H41.4953C41.4953 24.505 41.6984 23.5587 41.8895 22.9319L43.084 18.9746H46.2136L46.9183 28.7818H44.2426L43.9799 24.6893C43.9321 23.952 43.9799 23.1163 43.9799 23.1163H43.9321C43.9321 23.1163 43.6932 24.0749 43.4901 24.6893L42.6181 27.4791H40.3247L39.4408 24.6893C39.2496 24.0749 39.0107 23.1163 39.0107 23.1163H38.963C38.963 23.1163 38.9988 23.952 38.951 24.6893L38.7002 28.7818H35.9886L36.7173 18.9746Z" fill="#A3A3A0"/>
<path d="M52.7474 18.7422C55.877 18.7422 57.9673 20.9421 57.9673 23.8547C57.9673 26.8411 55.877 29.0901 52.7474 29.0901C49.6178 29.0901 47.5274 26.8411 47.5274 23.8547C47.5154 20.9298 49.6178 18.7422 52.7474 18.7422ZM52.7474 26.411C54.0255 26.411 54.9452 25.3786 54.9452 23.8547C54.9452 22.4045 54.0255 21.4214 52.7474 21.4214C51.4692 21.4214 50.5495 22.4045 50.5495 23.8547C50.5375 25.3664 51.4692 26.411 52.7474 26.411Z" fill="#A3A3A0"/>
<path d="M51.6008 6.72217C54.7304 6.72217 56.8208 8.92203 56.8208 11.8347C56.8208 14.8211 54.7304 17.0701 51.6008 17.0701C48.4712 17.0701 46.3809 14.8211 46.3809 11.8347C46.3809 8.92203 48.4712 6.72217 51.6008 6.72217ZM51.6008 14.391C52.8789 14.391 53.7987 13.3586 53.7987 11.8347C53.7987 10.3845 52.8789 9.40133 51.6008 9.40133C50.3227 9.40133 49.4029 10.3845 49.4029 11.8347C49.391 13.3586 50.3227 14.391 51.6008 14.391Z" fill="#A3A3A0"/>
<path d="M81.2601 6.72217C84.3897 6.72217 86.4801 8.92203 86.4801 11.8347C86.4801 14.8211 84.3897 17.0701 81.2601 17.0701C78.1305 17.0701 76.0402 14.8211 76.0402 11.8347C76.0402 8.92203 78.1305 6.72217 81.2601 6.72217ZM81.2601 14.391C82.5382 14.391 83.458 13.3586 83.458 11.8347C83.458 10.3845 82.5382 9.40133 81.2601 9.40133C79.982 9.40133 79.0622 10.3845 79.0622 11.8347C79.0622 13.3586 79.982 14.391 81.2601 14.391Z" fill="#A3A3A0"/>
<path d="M63.7607 18.7422C66.8903 18.7422 68.9806 20.9421 68.9806 23.8547C68.9806 26.8411 66.8903 29.0901 63.7607 29.0901C60.6311 29.0901 58.5407 26.8411 58.5407 23.8547C58.5288 20.9298 60.6311 18.7422 63.7607 18.7422ZM63.7607 26.411C65.0388 26.411 65.9585 25.3786 65.9585 23.8547C65.9585 22.4045 65.0388 21.4214 63.7607 21.4214C62.4826 21.4214 61.5628 22.4045 61.5628 23.8547C61.5508 25.3664 62.4826 26.411 63.7607 26.411Z" fill="#A3A3A0"/>
<path d="M69.9484 18.9746H73.8185C76.769 18.9746 78.6443 20.7689 78.6443 23.8536C78.6443 26.9384 76.769 28.7818 73.8185 28.7818H69.9484V18.9746ZM73.6394 26.373C74.9294 26.373 75.6939 25.525 75.6939 23.8659C75.6939 22.2191 74.8936 21.3957 73.6394 21.3957H72.8391V26.373H73.6394Z" fill="#A3A3A0"/>
<path d="M81.1884 24.911L78.0469 18.9873H81.1406L82.0604 21.0151C82.3232 21.6296 82.6099 22.5022 82.6099 22.5022H82.6577C82.6577 22.5022 82.9324 21.6419 83.2191 21.0151L84.1149 18.9873H87.2206L84.0791 24.911V28.7945H81.2004V24.911H81.1884Z" fill="#A3A3A0"/>
</svg>
