<svg width="23" height="18" viewBox="0 0 23 18" fill="none" xmlns="http://www.w3.org/2000/svg">
<path d="M22.154 2.13075C21.3206 2.49422 20.4393 2.73578 19.537 2.84799C20.4878 2.28393 21.1987 1.39076 21.5351 0.337665C20.6448 0.865672 19.6707 1.2375 18.655 1.43706C18.0323 0.772131 17.224 0.30986 16.3351 0.110302C15.4462 -0.0892566 14.5179 -0.0168772 13.6706 0.318036C12.8234 0.65295 12.0965 1.23492 11.5844 1.98833C11.0722 2.74173 10.7984 3.63176 10.7987 4.54277C10.7987 4.90277 10.8291 5.24893 10.9039 5.57847C9.09709 5.48988 7.32931 5.02095 5.71615 4.20231C4.10298 3.38368 2.68076 2.23379 1.54247 0.827822C0.959294 1.82732 0.779002 3.01153 1.03831 4.13929C1.29761 5.26706 1.97701 6.2536 2.93817 6.89802C2.21922 6.87873 1.51544 6.68688 0.88616 6.33863V6.38847C0.887364 7.43723 1.24985 8.45355 1.91261 9.26636C2.57536 10.0792 3.49791 10.6388 4.52495 10.8511C4.13641 10.9535 3.73597 11.0038 3.33418 11.0007C3.0456 11.0058 2.75732 10.9798 2.47432 10.9231C2.76778 11.8245 3.33347 12.6128 4.09349 13.1794C4.85352 13.746 5.77051 14.0631 6.7182 14.087C5.11056 15.3443 3.12783 16.0263 1.08693 16.0241C0.714466 16.0241 0.357233 16.0075 0 15.9618C2.07677 17.3001 4.49681 18.008 6.96743 17.9999C15.325 17.9999 19.8943 11.0768 19.8943 5.07585C19.8943 4.87508 19.8874 4.68123 19.8777 4.48877C20.7735 3.84767 21.5449 3.04859 22.154 2.13075Z" fill="#1DBA40"/>
</svg>
