<svg width="128" height="29" viewBox="0 0 128 29" fill="none" xmlns="http://www.w3.org/2000/svg">
<path d="M1.125 23V5.54545H8.65909C9.95455 5.54545 11.0881 5.78125 12.0597 6.25284C13.0313 6.72443 13.7869 7.40341 14.3267 8.28977C14.8665 9.17614 15.1364 10.2386 15.1364 11.4773C15.1364 12.7273 14.858 13.7812 14.3011 14.6392C13.75 15.4972 12.9744 16.1449 11.9744 16.5824C10.9801 17.0199 9.81818 17.2386 8.48864 17.2386H3.98864V13.5568H7.53409C8.09091 13.5568 8.56534 13.4886 8.95739 13.3523C9.35511 13.2102 9.65909 12.9858 9.86932 12.679C10.0852 12.3722 10.1932 11.9716 10.1932 11.4773C10.1932 10.9773 10.0852 10.571 9.86932 10.2585C9.65909 9.94034 9.35511 9.70739 8.95739 9.55966C8.56534 9.40625 8.09091 9.32954 7.53409 9.32954H5.86364V23H1.125ZM11.3523 14.9886L15.7159 23H10.5682L6.30682 14.9886H11.3523ZM17.399 9.36364V5.54545H32.5694V9.36364H27.3194V23H22.649V9.36364H17.399ZM35.0728 23V5.54545H42.6069C43.9024 5.54545 45.0359 5.80114 46.0075 6.3125C46.9791 6.82386 47.7347 7.54261 48.2745 8.46875C48.8143 9.39489 49.0842 10.4773 49.0842 11.7159C49.0842 12.9659 48.8058 14.0483 48.2489 14.9631C47.6978 15.8778 46.9222 16.5824 45.9222 17.0767C44.9279 17.571 43.766 17.8182 42.4364 17.8182H37.9364V14.1364H41.4819C42.0387 14.1364 42.5132 14.0398 42.9052 13.8466C43.3029 13.6477 43.6069 13.3665 43.8171 13.0028C44.033 12.6392 44.141 12.2102 44.141 11.7159C44.141 11.2159 44.033 10.7898 43.8171 10.4375C43.6069 10.0795 43.3029 9.80682 42.9052 9.61932C42.5132 9.42614 42.0387 9.32954 41.4819 9.32954H39.8114V23H35.0728Z" fill="#1DBA40"/>
<path d="M58.1364 23H54.0114V11.3636H58.1705C59.3409 11.3636 60.3485 11.5966 61.1932 12.0625C62.0379 12.5246 62.6875 13.1894 63.142 14.0568C63.6004 14.9242 63.8295 15.9621 63.8295 17.1705C63.8295 18.3826 63.6004 19.4242 63.142 20.2955C62.6875 21.1667 62.0341 21.8352 61.1818 22.3011C60.3333 22.767 59.3182 23 58.1364 23ZM56.4716 20.892H58.0341C58.7614 20.892 59.3731 20.7633 59.8693 20.5057C60.3693 20.2443 60.7443 19.8409 60.9943 19.2955C61.2481 18.7462 61.375 18.0379 61.375 17.1705C61.375 16.3106 61.2481 15.608 60.9943 15.0625C60.7443 14.517 60.3712 14.1155 59.875 13.858C59.3788 13.6004 58.767 13.4716 58.0398 13.4716H56.4716V20.892ZM68.0952 23.1648C67.5384 23.1648 67.0421 23.0682 66.6065 22.875C66.1709 22.678 65.8262 22.3883 65.5724 22.0057C65.3224 21.6193 65.1974 21.1383 65.1974 20.5625C65.1974 20.0777 65.2865 19.6705 65.4645 19.3409C65.6425 19.0114 65.8849 18.7462 66.1918 18.5455C66.4986 18.3447 66.8471 18.1932 67.2372 18.0909C67.6312 17.9886 68.044 17.9167 68.4759 17.875C68.9834 17.822 69.3925 17.7727 69.7031 17.7273C70.0137 17.678 70.2391 17.6061 70.3793 17.5114C70.5194 17.4167 70.5895 17.2765 70.5895 17.0909V17.0568C70.5895 16.697 70.4759 16.4186 70.2486 16.2216C70.0251 16.0246 69.7069 15.9261 69.294 15.9261C68.8584 15.9261 68.5118 16.0227 68.2543 16.2159C67.9967 16.4053 67.8262 16.6439 67.7429 16.9318L65.5043 16.75C65.6179 16.2197 65.8414 15.7614 66.1747 15.375C66.508 14.9848 66.938 14.6856 67.4645 14.4773C67.9948 14.2652 68.6084 14.1591 69.3054 14.1591C69.7902 14.1591 70.2543 14.2159 70.6974 14.3295C71.1444 14.4432 71.5402 14.6193 71.8849 14.858C72.2334 15.0966 72.508 15.4034 72.7088 15.7784C72.9096 16.1496 73.0099 16.5947 73.0099 17.1136V23H70.7145V21.7898H70.6463C70.5062 22.0625 70.3187 22.303 70.0838 22.5114C69.849 22.7159 69.5668 22.8769 69.2372 22.9943C68.9077 23.108 68.527 23.1648 68.0952 23.1648ZM68.7884 21.4943C69.1444 21.4943 69.4588 21.4242 69.7315 21.2841C70.0043 21.1402 70.2183 20.947 70.3736 20.7045C70.5289 20.4621 70.6065 20.1875 70.6065 19.8807V18.9545C70.5308 19.0038 70.4266 19.0492 70.294 19.0909C70.1652 19.1288 70.0194 19.1648 69.8565 19.1989C69.6937 19.2292 69.5308 19.2576 69.3679 19.2841C69.205 19.3068 69.0573 19.3277 68.9247 19.3466C68.6406 19.3883 68.3925 19.4545 68.1804 19.5455C67.9683 19.6364 67.8035 19.7595 67.6861 19.9148C67.5687 20.0663 67.5099 20.2557 67.5099 20.483C67.5099 20.8125 67.6293 21.0644 67.8679 21.2386C68.1103 21.4091 68.4171 21.4943 68.7884 21.4943ZM79.5298 14.2727V16.0909H74.2741V14.2727H79.5298ZM75.4673 12.1818H77.8878V20.3182C77.8878 20.5417 77.9219 20.7159 77.9901 20.8409C78.0582 20.9621 78.1529 21.0473 78.2741 21.0966C78.3991 21.1458 78.5431 21.1705 78.706 21.1705C78.8196 21.1705 78.9332 21.161 79.0469 21.142C79.1605 21.1193 79.2476 21.1023 79.3082 21.0909L79.6889 22.892C79.5677 22.9299 79.3973 22.9735 79.1776 23.0227C78.9579 23.0758 78.6908 23.108 78.3764 23.1193C77.7931 23.142 77.2817 23.0644 76.8423 22.8864C76.4067 22.7083 76.0677 22.4318 75.8253 22.0568C75.5829 21.6818 75.4635 21.2083 75.4673 20.6364V12.1818ZM83.5952 23.1648C83.0384 23.1648 82.5421 23.0682 82.1065 22.875C81.6709 22.678 81.3262 22.3883 81.0724 22.0057C80.8224 21.6193 80.6974 21.1383 80.6974 20.5625C80.6974 20.0777 80.7865 19.6705 80.9645 19.3409C81.1425 19.0114 81.3849 18.7462 81.6918 18.5455C81.9986 18.3447 82.3471 18.1932 82.7372 18.0909C83.1312 17.9886 83.544 17.9167 83.9759 17.875C84.4834 17.822 84.8925 17.7727 85.2031 17.7273C85.5137 17.678 85.7391 17.6061 85.8793 17.5114C86.0194 17.4167 86.0895 17.2765 86.0895 17.0909V17.0568C86.0895 16.697 85.9759 16.4186 85.7486 16.2216C85.5251 16.0246 85.2069 15.9261 84.794 15.9261C84.3584 15.9261 84.0118 16.0227 83.7543 16.2159C83.4967 16.4053 83.3262 16.6439 83.2429 16.9318L81.0043 16.75C81.1179 16.2197 81.3414 15.7614 81.6747 15.375C82.008 14.9848 82.438 14.6856 82.9645 14.4773C83.4948 14.2652 84.1084 14.1591 84.8054 14.1591C85.2902 14.1591 85.7543 14.2159 86.1974 14.3295C86.6444 14.4432 87.0402 14.6193 87.3849 14.858C87.7334 15.0966 88.008 15.4034 88.2088 15.7784C88.4096 16.1496 88.5099 16.5947 88.5099 17.1136V23H86.2145V21.7898H86.1463C86.0062 22.0625 85.8187 22.303 85.5838 22.5114C85.349 22.7159 85.0668 22.8769 84.7372 22.9943C84.4077 23.108 84.027 23.1648 83.5952 23.1648ZM84.2884 21.4943C84.6444 21.4943 84.9588 21.4242 85.2315 21.2841C85.5043 21.1402 85.7183 20.947 85.8736 20.7045C86.0289 20.4621 86.1065 20.1875 86.1065 19.8807V18.9545C86.0308 19.0038 85.9266 19.0492 85.794 19.0909C85.6652 19.1288 85.5194 19.1648 85.3565 19.1989C85.1937 19.2292 85.0308 19.2576 84.8679 19.2841C84.705 19.3068 84.5573 19.3277 84.4247 19.3466C84.1406 19.3883 83.8925 19.4545 83.6804 19.5455C83.4683 19.6364 83.3035 19.7595 83.1861 19.9148C83.0687 20.0663 83.0099 20.2557 83.0099 20.483C83.0099 20.8125 83.1293 21.0644 83.3679 21.2386C83.6103 21.4091 83.9171 21.4943 84.2884 21.4943ZM90.4332 23V11.3636H92.8537V15.7386H92.9276C93.0336 15.5038 93.187 15.2652 93.3878 15.0227C93.5923 14.7765 93.8575 14.572 94.1832 14.4091C94.5128 14.2424 94.9219 14.1591 95.4105 14.1591C96.0469 14.1591 96.634 14.3258 97.1719 14.6591C97.7098 14.9886 98.1397 15.4867 98.4616 16.1534C98.7836 16.8163 98.9446 17.6477 98.9446 18.6477C98.9446 19.6212 98.7874 20.4432 98.473 21.1136C98.1624 21.7803 97.7382 22.286 97.2003 22.6307C96.6662 22.9716 96.0677 23.142 95.4048 23.142C94.9351 23.142 94.5355 23.0644 94.206 22.9091C93.8802 22.7538 93.6132 22.5587 93.4048 22.3239C93.1965 22.0852 93.0374 21.8447 92.9276 21.6023H92.8196V23H90.4332ZM92.8026 18.6364C92.8026 19.1553 92.8745 19.608 93.0185 19.9943C93.1624 20.3807 93.3707 20.6818 93.6435 20.8977C93.9162 21.1098 94.2476 21.2159 94.6378 21.2159C95.0317 21.2159 95.3651 21.108 95.6378 20.892C95.9105 20.6723 96.117 20.3693 96.2571 19.983C96.401 19.5928 96.473 19.1439 96.473 18.6364C96.473 18.1326 96.4029 17.6894 96.2628 17.3068C96.1226 16.9242 95.9162 16.625 95.6435 16.4091C95.3707 16.1932 95.0355 16.0852 94.6378 16.0852C94.2438 16.0852 93.9105 16.1894 93.6378 16.3977C93.3688 16.6061 93.1624 16.9015 93.0185 17.2841C92.8745 17.6667 92.8026 18.1174 92.8026 18.6364ZM103.048 23.1648C102.491 23.1648 101.995 23.0682 101.56 22.875C101.124 22.678 100.779 22.3883 100.526 22.0057C100.276 21.6193 100.151 21.1383 100.151 20.5625C100.151 20.0777 100.24 19.6705 100.418 19.3409C100.596 19.0114 100.838 18.7462 101.145 18.5455C101.452 18.3447 101.8 18.1932 102.19 18.0909C102.584 17.9886 102.997 17.9167 103.429 17.875C103.937 17.822 104.346 17.7727 104.656 17.7273C104.967 17.678 105.192 17.6061 105.332 17.5114C105.473 17.4167 105.543 17.2765 105.543 17.0909V17.0568C105.543 16.697 105.429 16.4186 105.202 16.2216C104.978 16.0246 104.66 15.9261 104.247 15.9261C103.812 15.9261 103.465 16.0227 103.207 16.2159C102.95 16.4053 102.779 16.6439 102.696 16.9318L100.457 16.75C100.571 16.2197 100.795 15.7614 101.128 15.375C101.461 14.9848 101.891 14.6856 102.418 14.4773C102.948 14.2652 103.562 14.1591 104.259 14.1591C104.743 14.1591 105.207 14.2159 105.651 14.3295C106.098 14.4432 106.493 14.6193 106.838 14.858C107.187 15.0966 107.461 15.4034 107.662 15.7784C107.863 16.1496 107.963 16.5947 107.963 17.1136V23H105.668V21.7898H105.599C105.459 22.0625 105.272 22.303 105.037 22.5114C104.802 22.7159 104.52 22.8769 104.19 22.9943C103.861 23.108 103.48 23.1648 103.048 23.1648ZM103.741 21.4943C104.098 21.4943 104.412 21.4242 104.685 21.2841C104.957 21.1402 105.171 20.947 105.327 20.7045C105.482 20.4621 105.56 20.1875 105.56 19.8807V18.9545C105.484 19.0038 105.38 19.0492 105.247 19.0909C105.118 19.1288 104.973 19.1648 104.81 19.1989C104.647 19.2292 104.484 19.2576 104.321 19.2841C104.158 19.3068 104.01 19.3277 103.878 19.3466C103.594 19.3883 103.346 19.4545 103.134 19.5455C102.921 19.6364 102.757 19.7595 102.639 19.9148C102.522 20.0663 102.463 20.2557 102.463 20.483C102.463 20.8125 102.582 21.0644 102.821 21.2386C103.063 21.4091 103.37 21.4943 103.741 21.4943ZM117.102 16.7614L114.886 16.8977C114.848 16.7083 114.767 16.5379 114.642 16.3864C114.517 16.2311 114.352 16.108 114.148 16.017C113.947 15.9223 113.706 15.875 113.426 15.875C113.051 15.875 112.735 15.9545 112.477 16.1136C112.22 16.2689 112.091 16.4773 112.091 16.7386C112.091 16.947 112.174 17.1231 112.341 17.267C112.508 17.411 112.794 17.5265 113.199 17.6136L114.778 17.9318C115.627 18.1061 116.259 18.3864 116.676 18.7727C117.093 19.1591 117.301 19.6667 117.301 20.2955C117.301 20.8674 117.133 21.3693 116.795 21.8011C116.462 22.233 116.004 22.5701 115.42 22.8125C114.841 23.0511 114.172 23.1705 113.415 23.1705C112.259 23.1705 111.339 22.9299 110.653 22.4489C109.972 21.964 109.572 21.3049 109.455 20.4716L111.835 20.3466C111.907 20.6989 112.081 20.9678 112.358 21.1534C112.634 21.3352 112.989 21.4261 113.42 21.4261C113.845 21.4261 114.186 21.3447 114.443 21.1818C114.705 21.0152 114.837 20.8011 114.841 20.5398C114.837 20.3201 114.744 20.1402 114.562 20C114.381 19.8561 114.1 19.7462 113.722 19.6705L112.21 19.3693C111.358 19.1989 110.723 18.9034 110.307 18.483C109.894 18.0625 109.688 17.5265 109.688 16.875C109.688 16.3144 109.839 15.8314 110.142 15.4261C110.449 15.0208 110.879 14.7083 111.432 14.4886C111.989 14.2689 112.64 14.1591 113.386 14.1591C114.489 14.1591 115.356 14.392 115.989 14.858C116.625 15.3239 116.996 15.9583 117.102 16.7614ZM122.803 23.1705C121.905 23.1705 121.132 22.9886 120.484 22.625C119.84 22.2576 119.344 21.7386 118.996 21.0682C118.647 20.3939 118.473 19.5966 118.473 18.6761C118.473 17.7784 118.647 16.9905 118.996 16.3125C119.344 15.6345 119.835 15.1061 120.467 14.7273C121.104 14.3485 121.85 14.1591 122.706 14.1591C123.282 14.1591 123.818 14.2519 124.314 14.4375C124.814 14.6193 125.25 14.8939 125.621 15.2614C125.996 15.6288 126.287 16.0909 126.496 16.6477C126.704 17.2008 126.808 17.8485 126.808 18.5909V19.2557H119.439V17.7557H124.53C124.53 17.4072 124.454 17.0985 124.303 16.8295C124.151 16.5606 123.941 16.3504 123.672 16.1989C123.407 16.0436 123.098 15.9659 122.746 15.9659C122.378 15.9659 122.053 16.0511 121.768 16.2216C121.488 16.3883 121.268 16.6136 121.109 16.8977C120.95 17.178 120.869 17.4905 120.865 17.8352V19.2614C120.865 19.6932 120.945 20.0663 121.104 20.3807C121.267 20.6951 121.496 20.9375 121.791 21.108C122.087 21.2784 122.437 21.3636 122.842 21.3636C123.111 21.3636 123.357 21.3258 123.581 21.25C123.804 21.1742 123.996 21.0606 124.155 20.9091C124.314 20.7576 124.435 20.572 124.518 20.3523L126.757 20.5C126.643 21.0379 126.411 21.5076 126.058 21.9091C125.71 22.3068 125.259 22.6174 124.706 22.8409C124.157 23.0606 123.522 23.1705 122.803 23.1705Z" fill="#838590"/>
</svg>
